<svg enable-background="new 0 0 566.93 566.93" viewBox="0 0 566.93 566.93" xmlns="http://www.w3.org/2000/svg" xmlns:xlink="http://www.w3.org/1999/xlink"><pattern id="a" height="566.93" overflow="visible" patternUnits="userSpaceOnUse" viewBox=".01 -566.94 566.93 566.93" width="566.93" y="566.93"><path d="m.01-566.94h566.93v566.93h-566.93z" fill="none"/><path d="m.01-566.94h566.93v566.93h-566.93z" fill="none"/><path d="m526.56-566.94h-62.45c1.68 1.55 3.4 3.14 5.17 4.78 6.76 6.27 14.06 13.04 20.27 19.79 16.08 15.2 32 32.11 27.51 44.14-4.87 13.06-29.47 8.74-89.44 16.77-64.12 8.59-86.9 20.35-93.79 9.94-1.59-2.41-1.97-5.46-1.43-8.95-5.84.25-9.45-.86-11.57-4.05-9.68-14.63 25.29-52.96 40.99-70.19 4.01-4.4 7.74-8.49 11.29-12.24h-39.72c-.39 1.3-.96 2.7-1.68 4.18 8.92-.18 12.4-1.03 14.32 1.75 4.18 6.04-5.75 19.42-16.51 33.91-10.16 13.69-15.64 20.86-22.22 20.03-5.68-.71-9.51-7.03-12.08-12.95-.31 0-.61 0-.92-.05-8.06-1.01-12.41-13.31-14.68-19.75-2.54-7.18-4.9-18.48-3.56-27.12h-24.83c3.59 11.42 6.62 26.65 10.55 46.45 8.6 43.31 12.91 64.97 1.86 73.91-4.38 3.55-14.25 7.67-84.47-25.47-48.43-22.85-76.03-36.12-82.41-48.94-9.91-6.91-14.76-13-14.44-19.34.4-7.98 11.25-15.45 32.76-26.61h-74.84c7.07 3.27 12.1 7.41 13.47 13.22 6.88 3.26 11.75 7.38 13.04 13.14 3.61 16.16-23.5 33.5-32.3 39.13-10.9 6.97-23.98 15.34-34.16 10.56-.1-.05-.19-.09-.28-.14v7.85c19.95-2.25 36.92-1.61 44.64 9.1 1.23 1.7 2.12 3.53 2.73 5.51 4.26 1.6 7.76 4.01 10.27 7.49 7.56 10.5 2.63 25.65-5.59 50.93-9.11 28.01-15.83 48.68-31.06 52.8-6.78 1.84-12.1-.48-21-6.73v158.45c8.58-2.14 15.26-2.61 19.8 1.11 1.02.84 2.76 2.58 3.22 10.26 3.92-.13 7.2.62 9.78 2.74 1.87 1.53 6.12 6.02.62 44.1-3.56 24.66-5.46 37.03-11.18 38.51-4.08 1.06-9.18-3.72-17.35-13.79-1.47-.79-3.08-2.07-4.89-3.83v115.19c3.92.83 7.47 1.68 10.26 2.35 11.07 2.65 21.87 5.25 29.98 8.99h74.83c7.47-3.88 16.21-8.19 26.25-13.14 43.73-21.53 65.88-32.15 79.5-25.47 5.1 2.5 8.97 6.63 12.18 12.64.27.12.55.23.82.36 8.17 4.01 13.17 12.16 17.4 25.6h121.89c15.3-16.16 27.22-25.95 43.37-26.27 17.25-.34 30.3 10.32 47.63 26.27h62.45c-1.48-3.91-1.67-6.07-.29-8.38 5.33-8.9 25.75-6.11 40.67-2.97v-115.17c-4.63-4.51-10.57-12.15-18.71-22.7-22.71-29.44-21.32-35.56-20.5-37.89 2.7-7.58 12.23-10.49 26.71-14.91 4.53-1.38 8.7-2.65 12.5-3.6v-158.45c-8.52-5.99-20.33-15.6-39.87-28.68-40.57-27.15-55.68-29.88-55.9-39.17-9.38-5.52-13.22-8.57-13-13.58.88-20.82 69.42-31.76 84.47-34.16 8.31-1.33 16.53-2.64 24.3-3.51v-7.85c-3.79-1.88-5.36-4.88-7.64-11.52-1.75-.15-3.45-.58-5.08-1.34-7.08-3.32-6.57-10.09-16.15-35.4-5.58-14.75-9.61-22.64-11.51-27.65zm-144.06 420.56c24.64-51.98 37.21-78.01 49.59-79.81 16.9-2.47 34.78 11.59 49.65 28.3 21.81 19.03 40.19 49.77 45.48 58.63 16.01 26.79 36.57 61.18 21.6 85.09-11.69 18.67-38.72 20.88-83.51 24.55-45.32 3.71-87.05 7.13-100.68-12.5-.75-1.08-1.27-2.35-1.6-3.81-4.79-2.27-8.67-5.26-11.4-9.19-7.21-10.38 5.38-37.48 30.87-91.25zm-17.67-26.55c-6.63 11.56-25.24 44.04-44.72 40.99-5.6-.88-9.92-4.48-13.04-8.07-2.19-2.32-4.77-5.06-7.69-8.14-2.05-1.42-3.82-3.14-5.31-4.86-7.65-8.12-20.01-21.18-35.4-37.27-29.37-30.7-35.06-36.1-33.54-42.86 2.97-13.2 30.2-17.02 72.67-22.98 41.6-5.84 62.57-8.55 70.81 1.86 1.7 2.15 2.84 4.61 3.52 7.28 4.16 1.1 7.28 2.94 9.48 5.72 12.98 16.41-6.36 50.16-16.77 68.32zm-152.97 89.05c1.08-18.29 43.86-28.71 50.93-30.43 23.73-5.78 53.78-15.19 67.08 0 1.82 2.08 3.15 4.43 4.1 6.95 3.44 1.3 6.45 3.26 8.9 6.05 12.81 14.63 2.05 42.35-2.48 54.04-4.81 12.4-14.2 36.59-32.3 39.75-5.68.99-11.5-.21-50.93-31.06-20.8-16.27-28.43-23.17-31.05-27.52-12.98-10.94-14.46-14.14-14.25-17.78zm-57.43-36.49c-2.49-.75-6.2-2.2-8.07-5.59-1.1-1.98-1.32-4.19-1.12-6.32-2.22-.62-3.58-1.02-3.81-1.09-2.49-.75-6.2-2.2-8.07-5.59-2.76-4.98-.04-11.38 1.24-14.29 17.81-40.42 26.71-60.63 39.75-61.49 9.77-.64 17.83 6.6 27.99 18.37 6.38 4.89 12.95 12.81 21.04 22.58 14.82 17.89 31.7 38.26 25.47 52.17-11.7 26.11-92.46 1.83-94.41 1.24zm-69.8 18.94c17.97 3.46 50.23 9.67 54.63 25.02 7.15 3.72 12.38 8.45 13.34 14.55 1.53 9.68-8.42 18.32-27.78 35.13-20.9 18.15-31.69 27.52-43.38 24.91-4.78-1.06-9.02-5.4-13.91-13.25-8.86-2.79-16.05-17.13-29.64-44.82-15.1-30.8-13.51-35.38-12.31-37.54 7.71-13.88 42.96-7.09 59.05-4zm-43.37-188.69c13.78-18.05 35.14-24.22 55.11-30 2.98-.86 70.51-19.88 84.62 1.09 1.19 1.77 1.85 3.62 2.05 5.59 4.77 1.54 8.6 3.92 10.95 7.41 10.33 15.35-18.82 35.96-50.88 99.37-29.28 57.93-30.16 90.59-45.72 91.58-6.92.44-13.44-5.6-19.22-14.3-16.15-7.69-29.33-46.78-34.62-62.48-11.39-33.8-23.68-70.25-2.29-98.26zm84.07-77.45c11.71 10.36 22.44 21.99 19.28 29.56-2.98 7.14-15.06 2.87-42.86 10.56-25.86 7.15-32.11 15.47-39.75 11.18-3.93-2.21-6.16-6.61-7.32-11.92-2.02.26-3.81-.03-5.68-1.08-14.69-8.25-5.77-46.98-4.97-50.31 2.94-12.28 6.56-27.42 17.39-31.06 10.19-3.42 20.91 5.31 37.27 18.63 8.43 6.87 19.58 15.95 26.64 24.44zm117.27 11.37c-10.42 20.11-15.64 30.16-22.98 32.3-12.6 3.66-27.54-8.69-40.93-23.72-12.62-10.85-24.97-27.31-34.19-39.59-3.65-4.86-54.38-73.14-40.37-86.96 6.77-6.68 21.01 6.93 75.78 26.09 43.83 15.33 61.69 16.05 66.46 30.43.05.16.1.32.14.48 6.93 3.19 10.95 6.76 12.86 12.52 3.25 9.82-3.42 22.7-16.77 48.45zm73.52-6.39c11.16 4.6 17.41 21.08 27.71 43 6.55 13.95 17.14 36.49 8.7 45.96-6.38 7.16-17.6.1-49.69-1.86-36.31-2.22-49.69 5.11-55.28-3.11-1.67-2.46-2.12-5.54-1.71-9-5.62.07-9.07-.74-11.29-4-7.93-11.65 11.44-37.43 21.12-50.31 13.83-18.4 27.87-37.09 43.48-34.78 7.01 1.04 12.12 6.13 16.97 14.1zm92.32-30.79c-16.68 34.7-20.42 38.17-24.84 38.51-4.52.35-7.37-2.77-15.29-13.17-5.34-1.3-9.88-9.47-28.14-32.75-21.07-26.86-26.31-30.35-24.84-37.27 3.58-16.88 40.16-21.35 48.45-22.36 12.42-1.52 39.88-4.87 47.2 8.07.71 1.26 1.2 2.61.99 5.01 5.29 1.4 9.68 3.87 12.01 7.99 2.28 4.04 2.24 9.01-15.53 45.96zm86.92 11.61c23.08 18.9 42.31 57.18 50.97 80.94 2.57 7.04 24.98 68.54 3.11 84.47-9.14 6.66-26.3.39-60.25-12.42-43.73-16.5-68.14-26-78.22-42.05-8.11-5.67-13.37-11.79-16.15-19.4-6.28-17.19 0-33.76 7.45-53.42 6.4-16.89 22.03-58.11 49.07-62.11 15.59-2.31 30.8 8.39 44.02 23.99z" fill="#fdb757"/><path d="m187.35-201.73c-13.04.86-21.94 21.07-39.75 61.49-.77 1.75-2.05 4.76-2.36 7.97-2.22-.62-3.58-1.02-3.81-1.09-2.49-.75-6.2-2.2-8.07-5.59-2.76-4.98-.04-11.38 1.24-14.29 17.81-40.42 26.71-60.63 39.75-61.49 9.77-.64 17.83 6.6 27.99 18.37-4.9-3.75-9.69-5.72-14.99-5.37z" fill="#e6741b"/><path d="m310.79-243.11c-42.47 5.96-69.71 9.78-72.67 22.98-1.52 6.75 4.17 12.16 33.54 42.86 10.99 11.49 20.42 21.42 27.71 29.12-2.05-1.42-3.82-3.14-5.31-4.86-7.65-8.12-20.01-21.18-35.4-37.27-29.37-30.7-35.06-36.1-33.54-42.86 2.97-13.2 30.2-17.02 72.67-22.98 41.6-5.84 62.57-8.55 70.81 1.86 1.7 2.15 2.84 4.61 3.52 7.28-11.43-3.02-30.83-.43-61.33 3.85z" fill="#e6741b"/><path d="m262.79-114.31c23.73-5.78 53.78-15.19 67.08 0 1.82 2.08 3.15 4.43 4.1 6.95-15.25-5.79-38.82 1.34-58.18 6.05-7.07 1.72-49.85 12.14-50.93 30.43-.09 1.48.11 2.89 1.25 4.77-12.98-10.94-14.46-14.14-14.25-17.77 1.08-18.29 43.86-28.71 50.93-30.43z" fill="#e6741b"/><path d="m432.09-226.19c16.9-2.47 34.78 11.59 49.65 28.3-11.73-10.23-24.44-17.08-36.65-15.3-12.38 1.81-24.95 27.83-49.59 79.81-22.84 48.17-35.31 74.93-32.48 87.45-4.79-2.27-8.67-5.26-11.4-9.19-7.21-10.38 5.38-37.48 30.87-91.25 24.64-51.98 37.21-78.01 49.59-79.81z" fill="#e6741b"/><path d="m96.36-320.11c2.98-.86 70.51-19.88 84.62 1.09 1.19 1.77 1.85 3.62 2.05 5.59-23.86-7.72-71.19 5.6-73.67 6.32-19.97 5.78-41.34 11.95-55.11 30-21.39 28.01-9.1 64.46 2.29 98.26 3.78 11.22 11.59 34.37 21.62 49.48-16.15-7.69-29.33-46.78-34.62-62.48-11.39-33.8-23.68-70.25-2.29-98.26 13.78-18.05 35.14-24.22 55.11-30z" fill="#e6741b"/><path d="m312.15-363.67c-15.61-2.31-29.65 16.38-43.48 34.78-7.64 10.17-21.3 28.36-22.83 41.31-5.62.07-9.07-.74-11.29-4-7.93-11.65 11.44-37.43 21.12-50.31 13.83-18.4 27.87-37.09 43.48-34.78 7.01 1.04 12.12 6.13 16.97 14.1-1.26-.52-2.57-.89-3.97-1.1z" fill="#e6741b"/><path d="m495.35-381.76c-9.82-8.04-20.33-12.57-31.02-10.99-27.04 4-42.66 45.22-49.07 62.11-7.45 19.66-13.73 36.23-7.45 53.42.82 2.26 1.88 4.37 3.15 6.4-8.11-5.67-13.37-11.79-16.15-19.4-6.28-17.19 0-33.76 7.45-53.42 6.4-16.89 22.03-58.11 49.07-62.11 15.59-2.31 30.8 8.39 44.02 23.99z" fill="#e6741b"/><path d="m376.76-447.41c-8.29 1.01-44.87 5.48-48.45 22.36-1.47 6.91 3.77 10.4 24.84 37.27 6.62 8.44 11.43 14.89 15.14 19.75-5.34-1.3-9.88-9.47-28.14-32.75-21.07-26.86-26.31-30.35-24.84-37.27 3.58-16.88 40.16-21.35 48.45-22.36 12.42-1.52 39.88-4.87 47.2 8.07.71 1.26 1.2 2.61.99 5.01-11.3-2.99-26.74-1.11-35.19-.08z" fill="#e6741b"/><path d="m95.32-527.32c-.11 2.13.39 4.23 1.44 6.34-9.91-6.91-14.76-13-14.44-19.34.4-7.98 11.25-15.45 32.76-26.61h38.97c-38.79 19.09-58.2 28.88-58.73 39.61z" fill="#e6741b"/><path d="m220.83-38.61c5.1 2.5 8.97 6.63 12.18 12.64-13.69-5.89-35.81 4.73-78.68 25.83-.09.05-.18.09-.28.14h-38.97c7.47-3.88 16.21-8.19 26.25-13.14 43.73-21.53 65.88-32.15 79.5-25.47z" fill="#e6741b"/><path d="m117.13-461.16c-14.01 13.82 36.73 82.1 40.37 86.96 5.99 7.99 13.32 17.75 21.19 26.59-12.62-10.85-24.97-27.31-34.19-39.59-3.65-4.86-54.38-73.14-40.37-86.96 6.77-6.68 21.01 6.93 75.78 26.09 43.83 15.33 61.69 16.05 66.46 30.43.05.16.1.32.14.48-10.38-4.78-27.32-8.72-53.6-17.92-54.77-19.16-69.01-32.77-75.78-26.09z" fill="#e6741b"/><path d="m125.32-367.56c-4.66-4.13-9.48-8.05-13.64-11.44-16.36-13.32-27.08-22.05-37.27-18.63-10.83 3.63-14.45 18.78-17.39 31.06-.58 2.44-5.52 23.86-2.35 38.39-2.02.26-3.81-.03-5.68-1.08-14.69-8.25-5.77-46.98-4.97-50.31 2.94-12.28 6.56-27.42 17.39-31.06 10.19-3.42 20.91 5.31 37.27 18.63 8.43 6.87 19.58 15.95 26.64 24.44z" fill="#e6741b"/><path d="m471.17-432.5v.58c-9.38-5.52-13.22-8.57-13-13.58.88-20.82 69.42-31.76 84.47-34.16 8.31-1.33 16.53-2.64 24.3-3.51v14.74c-3.73.56-7.51 1.16-11.3 1.77-15.06 2.4-83.6 13.35-84.47 34.16z" fill="#e6741b"/><path d="m44.65-474.07c1.23 1.7 2.12 3.53 2.73 5.51-11.59-4.36-28.83-2.65-47.37.14v-14.74c19.95-2.25 36.92-1.61 44.64 9.1z" fill="#e6741b"/><path d="m489.55-542.36c-2.44-2.31-4.89-4.58-7.27-6.79-7.35-6.82-13.88-12.87-20.13-17.78h1.96c1.68 1.55 3.4 3.14 5.17 4.78 6.76 6.27 14.06 13.04 20.27 19.79z" fill="#e6741b"/><path d="m374.83-541.7c-13.12 14.39-39.68 43.51-42.43 61.24-5.84.25-9.45-.86-11.57-4.05-9.68-14.63 25.29-52.96 40.99-70.19 4.01-4.4 7.74-8.49 11.29-12.24h26.36c-7.52 6.45-15.34 15.02-24.66 25.24z" fill="#e6741b"/><path d="m416.49-26.28c17.25-.34 30.3 10.32 47.63 26.27h-1.96c-10.75-8.44-20.7-13.51-32.67-13.27-11.18.22-20.34 4.99-30 13.27h-26.36c15.3-16.16 27.22-25.95 43.37-26.27z" fill="#e6741b"/><path d="m53.71-553.72c-8.16-3.86-19.16-6.51-30.44-9.22-4.78-1.15-11.78-2.83-19.11-4h36.09c7.07 3.27 12.1 7.41 13.46 13.22z" fill="#e6741b"/><path d="m40.24-.01h-36.08c-1.38-.22-2.76-.42-4.15-.6v-10.74c3.92.83 7.47 1.68 10.26 2.35 11.06 2.65 21.86 5.25 29.97 8.99z" fill="#e6741b"/><path d="m526.27-8.39c5.33-8.9 25.75-6.11 40.67-2.97v10.75c-7.87-1.01-15.7-1.23-21.24.6h-19.14c-1.48-3.91-1.67-6.07-.29-8.38z" fill="#e6741b"/><path d="m539.27-562.31c-3.15 5.26 1.86 9.77 11.8 36.02 4.17 11.01 6.42 18.51 8.23 23.74-1.75-.15-3.45-.58-5.08-1.34-7.08-3.32-6.57-10.09-16.15-35.4-5.58-14.75-9.61-22.64-11.51-27.65h19.14c-2.86.94-5.11 2.42-6.43 4.62z" fill="#e6741b"/><path d="m548.23-149.23c-22.71-29.44-21.32-35.56-20.5-37.89 2.7-7.58 12.23-10.49 26.71-14.91 4.53-1.38 8.7-2.65 12.5-3.6v16.75c-14.2 4.33-23.54 7.26-26.21 14.75-.83 2.32-2.21 8.45 20.5 37.89 2.04 2.64 3.94 5.1 5.71 7.37v2.33c-4.63-4.51-10.57-12.15-18.71-22.7z" fill="#e6741b"/><path d="m19.81-204.51c1.02.84 2.76 2.58 3.22 10.26-6.02.2-13.57 2.49-22.52 5.22-.17.05-.33.1-.5.15v-16.75c8.58-2.14 15.26-2.61 19.8 1.11z" fill="#e6741b"/><path d="m.01-126.52v-2.33c1.75 2.23 3.37 4.29 4.89 6.16-1.47-.79-3.08-2.07-4.89-3.83z" fill="#e6741b"/><path d="m317.4-563.19c-15.84-1.25-18.76-3.84-22.88-1.04-9.18 6.23-5.74 26.54-1.9 37.41.67 1.9 1.53 4.32 2.6 6.8-.31 0-.61 0-.92-.05-8.06-1.01-12.41-13.31-14.68-19.75-2.54-7.18-4.9-18.48-3.56-27.12h57.33c-.39 1.3-.96 2.7-1.68 4.18-3.73.08-8.4.04-14.31-.43z" fill="#e6741b"/><path d="m84.62-101.42c17.97 3.46 50.23 9.67 54.63 25.02-12.18-6.35-29.94-9.77-41.63-12.02-16.08-3.1-51.32-9.88-59.04 4-1.2 2.16-2.8 6.74 12.31 37.54 6.82 13.9 12.02 24.42 16.64 31.82-8.86-2.79-16.05-17.13-29.64-44.82-15.1-30.8-13.51-35.38-12.31-37.54 7.71-13.88 42.96-7.09 59.04-4z" fill="#e6741b"/><path d="m146.35-125.96c-1.1-1.98-1.32-4.19-1.12-6.32 16.4 4.56 80.3 20.67 90.6-2.34 6.23-13.91-10.65-34.29-25.47-52.17-2.85-3.44-5.51-6.65-8.04-9.58 6.38 4.89 12.95 12.81 21.04 22.58 14.82 17.89 31.7 38.26 25.47 52.17-11.7 26.11-92.46 1.83-94.41 1.24-2.49-.75-6.2-2.2-8.07-5.59z" fill="#fe9923"/><path d="m146.35-125.96c-1.1-1.98-1.32-4.19-1.12-6.32 16.4 4.56 80.3 20.67 90.6-2.34 6.23-13.91-10.65-34.29-25.47-52.17-2.85-3.44-5.51-6.65-8.04-9.58 6.38 4.89 12.95 12.81 21.04 22.58 14.82 17.89 31.7 38.26 25.47 52.17-11.7 26.11-92.46 1.83-94.41 1.24-2.49-.75-6.2-2.2-8.07-5.59z" fill="#fe9923" opacity=".18"/><path d="m235.84-134.61c-10.31 23-74.2 6.9-90.6 2.34.31-3.21 1.59-6.22 2.36-7.97 17.81-40.42 26.71-60.63 39.75-61.49 5.3-.35 10.09 1.62 14.99 5.37 2.53 2.93 5.19 6.14 8.04 9.58 14.82 17.89 31.7 38.26 25.47 52.17z" fill="#e6741b"/><path d="m235.84-134.61c-10.31 23-74.2 6.9-90.6 2.34.31-3.21 1.59-6.22 2.36-7.97 17.81-40.42 26.71-60.63 39.75-61.49 5.3-.35 10.09 1.62 14.99 5.37 2.53 2.93 5.19 6.14 8.04 9.58 14.82 17.89 31.7 38.26 25.47 52.17z" fill="#fe9923" opacity=".18"/><path d="m320.11-131.93c-5.6-.88-9.92-4.48-13.04-8.07-2.19-2.32-4.77-5.06-7.69-8.14 2.24 1.56 4.81 2.76 7.74 3.22 19.48 3.05 38.09-29.43 44.72-40.99 9.04-15.78 24.82-43.32 20.29-61.04 4.16 1.1 7.28 2.94 9.48 5.72 12.98 16.41-6.36 50.16-16.77 68.32-6.63 11.56-25.24 44.04-44.72 40.99z" fill="#fe9923"/><path d="m320.11-131.93c-5.6-.88-9.92-4.48-13.04-8.07-2.19-2.32-4.77-5.06-7.69-8.14 2.24 1.56 4.81 2.76 7.74 3.22 19.48 3.05 38.09-29.43 44.72-40.99 9.04-15.78 24.82-43.32 20.29-61.04 4.16 1.1 7.28 2.94 9.48 5.72 12.98 16.41-6.36 50.16-16.77 68.32-6.63 11.56-25.24 44.04-44.72 40.99z" fill="#fe9923" opacity=".18"/><path d="m351.83-185.93c-6.63 11.56-25.24 44.04-44.72 40.99-2.92-.46-5.5-1.66-7.74-3.22-7.29-7.7-16.72-17.63-27.71-29.12-29.37-30.7-35.06-36.1-33.54-42.86 2.97-13.2 30.2-17.02 72.67-22.98 30.5-4.28 49.9-6.87 61.33-3.85 4.53 17.72-11.25 45.26-20.29 61.04z" fill="#e6741b"/><path d="m351.83-185.93c-6.63 11.56-25.24 44.04-44.72 40.99-2.92-.46-5.5-1.66-7.74-3.22-7.29-7.7-16.72-17.63-27.71-29.12-29.37-30.7-35.06-36.1-33.54-42.86 2.97-13.2 30.2-17.02 72.67-22.98 30.5-4.28 49.9-6.87 61.33-3.85 4.53 17.72-11.25 45.26-20.29 61.04z" fill="#fe9923" opacity=".18"/><path d="m295.09-20.52c18.1-3.16 27.48-27.35 32.3-39.75 3.89-10.03 12.35-31.85 6.59-47.09 3.44 1.3 6.45 3.26 8.9 6.05 12.81 14.63 2.05 42.35-2.48 54.04-4.81 12.4-14.2 36.59-32.3 39.75-5.68.99-11.5-.21-50.93-31.06-20.8-16.27-28.43-23.17-31.05-27.52 4.5 3.8 10.37 8.52 18.05 14.52 39.43 30.85 45.25 32.05 50.92 31.06z" fill="#fe9923"/><path d="m295.09-20.52c18.1-3.16 27.48-27.35 32.3-39.75 3.89-10.03 12.35-31.85 6.59-47.09 3.44 1.3 6.45 3.26 8.9 6.05 12.81 14.63 2.05 42.35-2.48 54.04-4.81 12.4-14.2 36.59-32.3 39.75-5.68.99-11.5-.21-50.93-31.06-20.8-16.27-28.43-23.17-31.05-27.52 4.5 3.8 10.37 8.52 18.05 14.52 39.43 30.85 45.25 32.05 50.92 31.06z" fill="#fe9923" opacity=".18"/><path d="m224.86-70.87c1.08-18.29 43.86-28.71 50.93-30.43 19.36-4.72 42.94-11.84 58.18-6.05 5.76 15.24-2.7 37.06-6.59 47.09-4.81 12.4-14.2 36.59-32.3 39.75-5.68.99-11.5-.21-50.93-31.06-7.68-6.01-13.55-10.73-18.05-14.52-1.14-1.89-1.33-3.29-1.25-4.77z" fill="#e6741b"/><path d="m224.86-70.87c1.08-18.29 43.86-28.71 50.93-30.43 19.36-4.72 42.94-11.84 58.18-6.05 5.76 15.24-2.7 37.06-6.59 47.09-4.81 12.4-14.2 36.59-32.3 39.75-5.68.99-11.5-.21-50.93-31.06-7.68-6.01-13.55-10.73-18.05-14.52-1.14-1.89-1.33-3.29-1.25-4.77z" fill="#fe9923" opacity=".18"/><path d="m452.31-42.63c44.79-3.67 71.83-5.88 83.51-24.55 14.97-23.91-5.59-58.31-21.6-85.09-4.2-7.03-16.64-27.83-32.48-45.63 21.81 19.03 40.19 49.77 45.48 58.63 16.01 26.79 36.57 61.18 21.6 85.09-11.69 18.67-38.72 20.88-83.51 24.55-45.32 3.71-87.05 7.13-100.68-12.5-.75-1.08-1.27-2.35-1.6-3.81 19.12 9.04 53.05 6.27 89.29 3.31z" fill="#fe9923"/><path d="m452.31-42.63c44.79-3.67 71.83-5.88 83.51-24.55 14.97-23.91-5.59-58.31-21.6-85.09-4.2-7.03-16.64-27.83-32.48-45.63 21.81 19.03 40.19 49.77 45.48 58.63 16.01 26.79 36.57 61.18 21.6 85.09-11.69 18.67-38.72 20.88-83.51 24.55-45.32 3.71-87.05 7.13-100.68-12.5-.75-1.08-1.27-2.35-1.6-3.81 19.12 9.04 53.05 6.27 89.29 3.31z" fill="#fe9923" opacity=".18"/><path d="m395.5-133.38c24.64-51.98 37.21-78.01 49.59-79.81 12.21-1.78 24.92 5.06 36.65 15.3 15.85 17.8 28.28 38.6 32.48 45.63 16.01 26.79 36.57 61.18 21.6 85.09-11.69 18.67-38.72 20.88-83.51 24.55-36.24 2.97-70.17 5.73-89.29-3.31-2.83-12.52 9.64-39.27 32.48-87.45z" fill="#e6741b"/><path d="m395.5-133.38c24.64-51.98 37.21-78.01 49.59-79.81 12.21-1.78 24.92 5.06 36.65 15.3 15.85 17.8 28.28 38.6 32.48 45.63 16.01 26.79 36.57 61.18 21.6 85.09-11.69 18.67-38.72 20.88-83.51 24.55-36.24 2.97-70.17 5.73-89.29-3.31-2.83-12.52 9.64-39.27 32.48-87.45z" fill="#fe9923" opacity=".18"/><path d="m84.39-128.07c15.55-.99 16.44-33.66 45.72-91.58 28.35-56.09 54.43-78.69 52.93-93.78 4.77 1.54 8.6 3.92 10.95 7.41 10.33 15.35-18.82 35.96-50.88 99.37-29.28 57.93-30.16 90.59-45.72 91.58-6.92.44-13.44-5.6-19.22-14.3 2.03.97 4.11 1.44 6.22 1.3z" fill="#fe9923"/><path d="m84.39-128.07c15.55-.99 16.44-33.66 45.72-91.58 28.35-56.09 54.43-78.69 52.93-93.78 4.77 1.54 8.6 3.92 10.95 7.41 10.33 15.35-18.82 35.96-50.88 99.37-29.28 57.93-30.16 90.59-45.72 91.58-6.92.44-13.44-5.6-19.22-14.3 2.03.97 4.11 1.44 6.22 1.3z" fill="#fe9923" opacity=".18"/><path d="m54.25-277.12c13.78-18.05 35.14-24.22 55.11-30 2.48-.72 49.81-14.04 73.67-6.32 1.5 15.09-24.57 37.69-52.93 93.78-29.28 57.93-30.16 90.59-45.72 91.58-2.12.14-4.19-.34-6.22-1.3-10.04-15.11-17.84-38.26-21.62-49.48-11.39-33.8-23.68-70.25-2.29-98.26z" fill="#e6741b"/><path d="m54.25-277.12c13.78-18.05 35.14-24.22 55.11-30 2.48-.72 49.81-14.04 73.67-6.32 1.5 15.09-24.57 37.69-52.93 93.78-29.28 57.93-30.16 90.59-45.72 91.58-2.12.14-4.19-.34-6.22-1.3-10.04-15.11-17.84-38.26-21.62-49.48-11.39-33.8-23.68-70.25-2.29-98.26z" fill="#fe9923" opacity=".18"/><path d="m289.83-288.48c32.09 1.97 43.31 9.02 49.69 1.86 8.45-9.47-2.14-32.01-8.7-45.96-5.62-11.97-10.04-22.32-14.71-30 11.16 4.6 17.41 21.08 27.71 43 6.55 13.95 17.14 36.49 8.7 45.96-6.38 7.16-17.6.1-49.69-1.86-36.31-2.22-49.69 5.11-55.28-3.11-1.67-2.46-2.12-5.54-1.71-9 8.54-.1 22.09-2.24 43.99-.89z" fill="#fe9923"/><path d="m289.83-288.48c32.09 1.97 43.31 9.02 49.69 1.86 8.45-9.47-2.14-32.01-8.7-45.96-5.62-11.97-10.04-22.32-14.71-30 11.16 4.6 17.41 21.08 27.71 43 6.55 13.95 17.14 36.49 8.7 45.96-6.38 7.16-17.6.1-49.69-1.86-36.31-2.22-49.69 5.11-55.28-3.11-1.67-2.46-2.12-5.54-1.71-9 8.54-.1 22.09-2.24 43.99-.89z" fill="#fe9923" opacity=".18"/><path d="m312.15-363.67c1.39.21 2.71.58 3.97 1.1 4.67 7.68 9.09 18.03 14.71 30 6.55 13.95 17.14 36.49 8.7 45.96-6.38 7.16-17.6.1-49.69-1.86-21.91-1.34-35.45.79-43.99.89 1.53-12.95 15.19-31.14 22.83-41.31 13.83-18.4 27.87-37.09 43.48-34.78z" fill="#e6741b"/><path d="m312.15-363.67c1.39.21 2.71.58 3.97 1.1 4.67 7.68 9.09 18.03 14.71 30 6.55 13.95 17.14 36.49 8.7 45.96-6.38 7.16-17.6.1-49.69-1.86-21.91-1.34-35.45.79-43.99.89 1.53-12.95 15.19-31.14 22.83-41.31 13.83-18.4 27.87-37.09 43.48-34.78z" fill="#fe9923" opacity=".18"/><path d="m536.43-229.35c21.87-15.93-.54-77.43-3.11-84.47-6.97-19.13-20.8-47.67-37.97-67.94 23.08 18.9 42.31 57.18 50.97 80.94 2.57 7.04 24.98 68.54 3.11 84.47-9.14 6.66-26.3.39-60.25-12.42-43.73-16.5-68.14-26-78.22-42.05 13.39 9.36 34.56 17.48 65.22 29.05 33.95 12.81 51.11 19.08 60.25 12.42z" fill="#fe9923"/><path d="m536.43-229.35c21.87-15.93-.54-77.43-3.11-84.47-6.97-19.13-20.8-47.67-37.97-67.94 23.08 18.9 42.31 57.18 50.97 80.94 2.57 7.04 24.98 68.54 3.11 84.47-9.14 6.66-26.3.39-60.25-12.42-43.73-16.5-68.14-26-78.22-42.05 13.39 9.36 34.56 17.48 65.22 29.05 33.95 12.81 51.11 19.08 60.25 12.42z" fill="#fe9923" opacity=".18"/><path d="m415.26-330.64c6.4-16.89 22.03-58.11 49.07-62.11 10.69-1.58 21.2 2.95 31.02 10.99 17.17 20.26 31 48.81 37.97 67.94 2.57 7.04 24.98 68.54 3.11 84.47-9.14 6.66-26.3.39-60.25-12.42-30.66-11.57-51.83-19.69-65.22-29.05-1.27-2.02-2.32-4.14-3.15-6.4-6.28-17.19 0-33.76 7.45-53.42z" fill="#e6741b"/><path d="m415.26-330.64c6.4-16.89 22.03-58.11 49.07-62.11 10.69-1.58 21.2 2.95 31.02 10.99 17.17 20.26 31 48.81 37.97 67.94 2.57 7.04 24.98 68.54 3.11 84.47-9.14 6.66-26.3.39-60.25-12.42-30.66-11.57-51.83-19.69-65.22-29.05-1.27-2.02-2.32-4.14-3.15-6.4-6.28-17.19 0-33.76 7.45-53.42z" fill="#fe9923" opacity=".18"/><path d="m383.59-354.86c-4.52.35-7.37-2.77-15.29-13.17.74.18 1.49.23 2.29.17 4.43-.34 8.16-3.81 24.84-38.51 12.22-25.41 16.05-35.7 16.52-40.96 5.29 1.4 9.68 3.87 12.01 7.99 2.28 4.04 2.24 9.01-15.53 45.96-16.68 34.7-20.42 38.17-24.84 38.51z" fill="#fe9923"/><path d="m383.59-354.86c-4.52.35-7.37-2.77-15.29-13.17.74.18 1.49.23 2.29.17 4.43-.34 8.16-3.81 24.84-38.51 12.22-25.41 16.05-35.7 16.52-40.96 5.29 1.4 9.68 3.87 12.01 7.99 2.28 4.04 2.24 9.01-15.53 45.96-16.68 34.7-20.42 38.17-24.84 38.51z" fill="#fe9923" opacity=".18"/><path d="m370.59-367.86c-.81.06-1.56.01-2.29-.17-3.71-4.86-8.52-11.31-15.14-19.75-21.07-26.86-26.31-30.35-24.84-37.27 3.58-16.88 40.16-21.35 48.45-22.36 8.46-1.03 23.89-2.91 35.19.08-.46 5.26-4.3 15.55-16.52 40.96-16.68 34.7-20.42 38.17-24.84 38.51z" fill="#e6741b"/><path d="m370.59-367.86c-.81.06-1.56.01-2.29-.17-3.71-4.86-8.52-11.31-15.14-19.75-21.07-26.86-26.31-30.35-24.84-37.27 3.58-16.88 40.16-21.35 48.45-22.36 8.46-1.03 23.89-2.91 35.19.08-.46 5.26-4.3 15.55-16.52 40.96-16.68 34.7-20.42 38.17-24.84 38.51z" fill="#fe9923" opacity=".18"/><path d="m263.64-446.58c-4.38 3.55-14.25 7.67-84.47-25.47-48.43-22.85-76.03-36.12-82.41-48.94 13.6 9.49 36.77 20.54 69.41 35.94 70.22 33.14 80.09 29.01 84.47 25.47 11.04-8.94 6.74-30.6-1.86-73.91-2.6-13.06-4.8-24.14-7.03-33.45h9.47c3.59 11.42 6.62 26.65 10.55 46.45 8.6 43.31 12.91 64.97 1.86 73.91z" fill="#fe9923"/><path d="m263.64-446.58c-4.38 3.55-14.25 7.67-84.47-25.47-48.43-22.85-76.03-36.12-82.41-48.94 13.6 9.49 36.77 20.54 69.41 35.94 70.22 33.14 80.09 29.01 84.47 25.47 11.04-8.94 6.74-30.6-1.86-73.91-2.6-13.06-4.8-24.14-7.03-33.45h9.47c3.59 11.42 6.62 26.65 10.55 46.45 8.6 43.31 12.91 64.97 1.86 73.91z" fill="#fe9923" opacity=".18"/><path d="m250.64-459.58c-4.38 3.55-14.25 7.67-84.47-25.47-32.64-15.4-55.81-26.45-69.41-35.94-1.05-2.11-1.55-4.21-1.44-6.34.53-10.73 19.94-20.52 58.73-39.61h87.7c2.23 9.31 4.43 20.38 7.03 33.45 8.6 43.31 12.91 64.97 1.86 73.91z" fill="#e6741b"/><path d="m250.64-459.58c-4.38 3.55-14.25 7.67-84.47-25.47-32.64-15.4-55.81-26.45-69.41-35.94-1.05-2.11-1.55-4.21-1.44-6.34.53-10.73 19.94-20.52 58.73-39.61h87.7c2.23 9.31 4.43 20.38 7.03 33.45 8.6 43.31 12.91 64.97 1.86 73.91z" fill="#fe9923" opacity=".18"/><path d="m233.83-25.61c8.17 4.01 13.17 12.16 17.4 25.6h-9.47c-2.64-11.03-5.32-19.57-8.74-25.96.27.12.55.23.81.36z" fill="#fe9923"/><path d="m233.83-25.61c8.17 4.01 13.17 12.16 17.4 25.6h-9.47c-2.64-11.03-5.32-19.57-8.74-25.96.27.12.55.23.81.36z" fill="#fe9923" opacity=".18"/><path d="m233.01-25.97c3.42 6.39 6.1 14.94 8.74 25.96h-87.7c.09-.05.18-.09.28-.14 42.87-21.1 64.99-31.72 78.68-25.83z" fill="#e6741b"/><path d="m233.01-25.97c3.42 6.39 6.1 14.94 8.74 25.96h-87.7c.09-.05.18-.09.28-.14 42.87-21.1 64.99-31.72 78.68-25.83z" fill="#fe9923" opacity=".18"/><path d="m219.61-323.89c-12.6 3.66-27.54-8.69-40.93-23.72 9.57 8.23 19.3 13.23 27.93 10.72 7.35-2.14 12.56-12.19 22.98-32.3 13.13-25.33 19.8-38.21 16.91-47.97 6.93 3.19 10.95 6.76 12.86 12.52 3.25 9.82-3.42 22.7-16.77 48.45-10.42 20.11-15.64 30.16-22.98 32.3z" fill="#fe9923"/><path d="m219.61-323.89c-12.6 3.66-27.54-8.69-40.93-23.72 9.57 8.23 19.3 13.23 27.93 10.72 7.35-2.14 12.56-12.19 22.98-32.3 13.13-25.33 19.8-38.21 16.91-47.97 6.93 3.19 10.95 6.76 12.86 12.52 3.25 9.82-3.42 22.7-16.77 48.45-10.42 20.11-15.64 30.16-22.98 32.3z" fill="#fe9923" opacity=".18"/><path d="m229.59-369.19c-10.42 20.11-15.64 30.16-22.98 32.3-8.63 2.51-18.35-2.49-27.93-10.72-7.86-8.84-15.19-18.6-21.19-26.59-3.65-4.86-54.38-73.14-40.37-86.96 6.77-6.68 21.01 6.93 75.78 26.09 26.28 9.19 43.22 13.14 53.6 17.92 2.89 9.76-3.78 22.63-16.91 47.97z" fill="#e6741b"/><path d="m229.59-369.19c-10.42 20.11-15.64 30.16-22.98 32.3-8.63 2.51-18.35-2.49-27.93-10.72-7.86-8.84-15.19-18.6-21.19-26.59-3.65-4.86-54.38-73.14-40.37-86.96 6.77-6.68 21.01 6.93 75.78 26.09 26.28 9.19 43.22 13.14 53.6 17.92 2.89 9.76-3.78 22.63-16.91 47.97z" fill="#fe9923" opacity=".18"/><path d="m131.6-351c1.87-4.47-1.12-10.36-6.28-16.56 11.71 10.36 22.44 21.99 19.28 29.56-2.98 7.14-15.06 2.87-42.86 10.56-25.86 7.15-32.11 15.47-39.75 11.18-3.93-2.21-6.16-6.61-7.32-11.92 6.21-.8 14.55-6.86 34.07-12.26 27.8-7.69 39.88-3.42 42.86-10.56z" fill="#fe9923"/><path d="m131.6-351c1.87-4.47-1.12-10.36-6.28-16.56 11.71 10.36 22.44 21.99 19.28 29.56-2.98 7.14-15.06 2.87-42.86 10.56-25.86 7.15-32.11 15.47-39.75 11.18-3.93-2.21-6.16-6.61-7.32-11.92 6.21-.8 14.55-6.86 34.07-12.26 27.8-7.69 39.88-3.42 42.86-10.56z" fill="#fe9923" opacity=".18"/><path d="m57.02-366.57c2.94-12.28 6.56-27.42 17.39-31.06 10.19-3.42 20.91 5.31 37.27 18.63 4.16 3.39 8.98 7.31 13.64 11.44 5.16 6.2 8.15 12.09 6.28 16.56-2.98 7.14-15.06 2.87-42.86 10.56-19.52 5.4-27.87 11.46-34.07 12.26-3.17-14.53 1.77-35.95 2.35-38.39z" fill="#e6741b"/><path d="m57.02-366.57c2.94-12.28 6.56-27.42 17.39-31.06 10.19-3.42 20.91 5.31 37.27 18.63 4.16 3.39 8.98 7.31 13.64 11.44 5.16 6.2 8.15 12.09 6.28 16.56-2.98 7.14-15.06 2.87-42.86 10.56-19.52 5.4-27.87 11.46-34.07 12.26-3.17-14.53 1.77-35.95 2.35-38.39z" fill="#fe9923" opacity=".18"/><path d="m471.17-431.92c8.89 5.23 22.74 12.69 42.9 26.17 31.53 21.1 42.93 33.18 52.87 35.57v6.11c-8.52-5.99-20.33-15.6-39.87-28.68-40.57-27.15-55.68-29.88-55.9-39.17z" fill="#fe9923"/><path d="m471.17-431.92c8.89 5.23 22.74 12.69 42.9 26.17 31.53 21.1 42.93 33.18 52.87 35.57v6.11c-8.52-5.99-20.33-15.6-39.87-28.68-40.57-27.15-55.68-29.88-55.9-39.17z" fill="#fe9923" opacity=".18"/><path d="m471.17-431.92c0-.19-.01-.38 0-.58.88-20.82 69.42-31.76 84.47-34.16 3.8-.61 7.57-1.21 11.3-1.77v98.25c-9.94-2.39-21.34-14.47-52.87-35.57-20.15-13.48-34.01-20.94-42.9-26.17z" fill="#e6741b"/><path d="m471.17-431.92c0-.19-.01-.38 0-.58.88-20.82 69.42-31.76 84.47-34.16 3.8-.61 7.57-1.21 11.3-1.77v98.25c-9.94-2.39-21.34-14.47-52.87-35.57-20.15-13.48-34.01-20.94-42.9-26.17z" fill="#fe9923" opacity=".18"/><path d="m8.01-370.35c15.22-4.12 21.95-24.79 31.06-52.8 6.89-21.17 11.46-35.25 8.32-45.43 4.26 1.6 7.76 4.01 10.27 7.49 7.56 10.5 2.63 25.65-5.59 50.93-9.11 28.01-15.83 48.68-31.06 52.8-6.78 1.84-12.1-.48-21-6.73v-6.11c2.65.64 5.2.59 8-.16z" fill="#fe9923"/><path d="m8.01-370.35c15.22-4.12 21.95-24.79 31.06-52.8 6.89-21.17 11.46-35.25 8.32-45.43 4.26 1.6 7.76 4.01 10.27 7.49 7.56 10.5 2.63 25.65-5.59 50.93-9.11 28.01-15.83 48.68-31.06 52.8-6.78 1.84-12.1-.48-21-6.73v-6.11c2.65.64 5.2.59 8-.16z" fill="#fe9923" opacity=".18"/><path d="m47.38-468.57c3.14 10.18-1.43 24.25-8.32 45.43-9.11 28.01-15.83 48.68-31.06 52.8-2.8.76-5.35.8-8 .16v-98.25c18.55-2.79 35.79-4.49 47.38-.14z" fill="#e6741b"/><path d="m47.38-468.57c3.14 10.18-1.43 24.25-8.32 45.43-9.11 28.01-15.83 48.68-31.06 52.8-2.8.76-5.35.8-8 .16v-98.25c18.55-2.79 35.79-4.49 47.38-.14z" fill="#fe9923" opacity=".18"/><path d="m504.06-511.22c3.23-8.67-4.13-19.87-14.51-31.14 16.08 15.2 32 32.11 27.51 44.14-4.87 13.06-29.47 8.74-89.44 16.77-64.12 8.59-86.9 20.35-93.79 9.94-1.59-2.41-1.97-5.46-1.43-8.95 13.2-.56 37.77-8.04 82.22-13.99 59.97-8.03 84.57-3.71 89.44-16.77z" fill="#fe9923"/><path d="m504.06-511.22c3.23-8.67-4.13-19.87-14.51-31.14 16.08 15.2 32 32.11 27.51 44.14-4.87 13.06-29.47 8.74-89.44 16.77-64.12 8.59-86.9 20.35-93.79 9.94-1.59-2.41-1.97-5.46-1.43-8.95 13.2-.56 37.77-8.04 82.22-13.99 59.97-8.03 84.57-3.71 89.44-16.77z" fill="#fe9923" opacity=".18"/><path d="m489.55-542.36c10.38 11.27 17.74 22.47 14.51 31.14-4.87 13.06-29.47 8.74-89.44 16.77-44.45 5.95-69.03 13.43-82.22 13.99 2.74-17.73 29.3-46.85 42.43-61.24 9.32-10.22 17.14-18.79 24.66-25.24h62.67c6.25 4.91 12.77 10.96 20.13 17.78 2.38 2.21 4.83 4.48 7.27 6.79z" fill="#e6741b"/><path d="m489.55-542.36c10.38 11.27 17.74 22.47 14.51 31.14-4.87 13.06-29.47 8.74-89.44 16.77-44.45 5.95-69.03 13.43-82.22 13.99 2.74-17.73 29.3-46.85 42.43-61.24 9.32-10.22 17.14-18.79 24.66-25.24h62.67c6.25 4.91 12.77 10.96 20.13 17.78 2.38 2.21 4.83 4.48 7.27 6.79z" fill="#fe9923" opacity=".18"/><path d="m462.15-.01h-62.67c9.66-8.28 18.82-13.05 30-13.27 11.97-.24 21.91 4.83 32.67 13.27z" fill="#e6741b"/><path d="m462.15-.01h-62.67c9.66-8.28 18.82-13.05 30-13.27 11.97-.24 21.91 4.83 32.67 13.27z" fill="#fe9923" opacity=".18"/><path d="m53.75-553.58s-.03-.09-.04-.14c6.88 3.26 11.75 7.38 13.04 13.14 3.61 16.16-23.5 33.5-32.3 39.13-10.9 6.97-23.98 15.34-34.16 10.56-.1-.05-.19-.09-.28-.14v-12.35c7.18-1.95 14.72-6.77 21.44-11.07 8.8-5.63 35.91-22.97 32.3-39.13z" fill="#fe9923"/><path d="m53.75-553.58s-.03-.09-.04-.14c6.88 3.26 11.75 7.38 13.04 13.14 3.61 16.16-23.5 33.5-32.3 39.13-10.9 6.97-23.98 15.34-34.16 10.56-.1-.05-.19-.09-.28-.14v-12.35c7.18-1.95 14.72-6.77 21.44-11.07 8.8-5.63 35.91-22.97 32.3-39.13z" fill="#fe9923" opacity=".18"/><path d="m53.71-553.72s.03.09.04.14c3.61 16.16-23.5 33.5-32.3 39.13-6.72 4.3-14.26 9.11-21.44 11.07v-63.56h4.15c7.33 1.18 14.33 2.85 19.11 4 11.28 2.71 22.28 5.36 30.44 9.22z" fill="#e6741b"/><path d="m53.71-553.72s.03.09.04.14c3.61 16.16-23.5 33.5-32.3 39.13-6.72 4.3-14.26 9.11-21.44 11.07v-63.56h4.15c7.33 1.18 14.33 2.85 19.11 4 11.28 2.71 22.28 5.36 30.44 9.22z" fill="#fe9923" opacity=".18"/><path d="m.01-.01v-.6c1.39.18 2.77.38 4.15.6h-4.15z" fill="#e6741b"/><path d="m.01-.01v-.6c1.39.18 2.77.38 4.15.6h-4.15z" fill="#fe9923" opacity=".18"/><path d="m566.94-.61v.6h-21.24c5.54-1.83 13.37-1.61 21.24-.6z" fill="#e6741b"/><path d="m566.94-.61v.6h-21.24c5.54-1.83 13.37-1.61 21.24-.6z" fill="#fe9923" opacity=".18"/><path d="m559.3-502.55c2.46.21 5.03-.12 7.64-.83v12.35c-3.79-1.88-5.36-4.88-7.64-11.52z" fill="#fe9923"/><path d="m559.3-502.55c2.46.21 5.03-.12 7.64-.83v12.35c-3.79-1.88-5.36-4.88-7.64-11.52z" fill="#fe9923" opacity=".18"/><path d="m559.3-502.55c-1.8-5.24-4.06-12.73-8.23-23.74-9.94-26.26-14.95-30.77-11.8-36.02 1.32-2.2 3.57-3.68 6.43-4.62h21.24v63.56c-2.61.71-5.18 1.04-7.64.82z" fill="#e6741b"/><path d="m559.3-502.55c-1.8-5.24-4.06-12.73-8.23-23.74-9.94-26.26-14.95-30.77-11.8-36.02 1.32-2.2 3.57-3.68 6.43-4.62h21.24v63.56c-2.61.71-5.18 1.04-7.64.82z" fill="#fe9923" opacity=".18"/><path d="m540.73-174.12c2.67-7.49 12.01-10.42 26.21-14.75v60.01c-1.78-2.27-3.67-4.73-5.71-7.37-22.71-29.44-21.32-35.56-20.5-37.89z" fill="#e6741b"/><path d="m540.73-174.12c2.67-7.49 12.01-10.42 26.21-14.75v60.01c-1.78-2.27-3.67-4.73-5.71-7.37-22.71-29.44-21.32-35.56-20.5-37.89z" fill="#fe9923" opacity=".18"/><path d="m9.25-121.9c5.72-1.48 7.62-13.85 11.18-38.51 2.48-17.19 2.97-27.52 2.6-33.83 3.92-.13 7.2.62 9.78 2.74 1.87 1.53 6.12 6.02.62 44.1-3.56 24.66-5.46 37.03-11.18 38.51-4.08 1.06-9.18-3.72-17.35-13.79 1.6.86 3.03 1.13 4.35.79z" fill="#fe9923"/><path d="m9.25-121.9c5.72-1.48 7.62-13.85 11.18-38.51 2.48-17.19 2.97-27.52 2.6-33.83 3.92-.13 7.2.62 9.78 2.74 1.87 1.53 6.12 6.02.62 44.1-3.56 24.66-5.46 37.03-11.18 38.51-4.08 1.06-9.18-3.72-17.35-13.79 1.6.86 3.03 1.13 4.35.79z" fill="#fe9923" opacity=".18"/><path d="m23.03-194.24c.38 6.32-.12 16.65-2.6 33.83-3.56 24.66-5.46 37.03-11.18 38.51-1.32.34-2.75.07-4.35-.79-1.52-1.87-3.15-3.93-4.89-6.16v-60.02c.17-.05.33-.1.5-.15 8.94-2.73 16.49-5.02 22.52-5.22z" fill="#e6741b"/><path d="m23.03-194.24c.38 6.32-.12 16.65-2.6 33.83-3.56 24.66-5.46 37.03-11.18 38.51-1.32.34-2.75.07-4.35-.79-1.52-1.87-3.15-3.93-4.89-6.16v-60.02c.17-.05.33-.1.5-.15 8.94-2.73 16.49-5.02 22.52-5.22z" fill="#fe9923" opacity=".18"/><path d="m316.52-540.1c6.17-8.32 12.07-16.26 15.19-22.66 8.92-.18 12.4-1.03 14.32 1.75 4.18 6.04-5.75 19.42-16.51 33.91-10.16 13.69-15.64 20.86-22.22 20.03-5.68-.71-9.51-7.03-12.08-12.95 6.19.07 11.61-7.04 21.3-20.08z" fill="#fe9923"/><path d="m316.52-540.1c6.17-8.32 12.07-16.26 15.19-22.66 8.92-.18 12.4-1.03 14.32 1.75 4.18 6.04-5.75 19.42-16.51 33.91-10.16 13.69-15.64 20.86-22.22 20.03-5.68-.71-9.51-7.03-12.08-12.95 6.19.07 11.61-7.04 21.3-20.08z" fill="#fe9923" opacity=".18"/><path d="m294.52-564.23c4.12-2.8 7.04-.21 22.88 1.04 5.91.46 10.58.5 14.31.43-3.12 6.41-9.01 14.35-15.19 22.66-9.69 13.04-15.11 20.15-21.3 20.08-1.08-2.48-1.93-4.9-2.6-6.8-3.84-10.87-7.28-31.18 1.9-37.41z" fill="#e6741b"/><path d="m294.52-564.23c4.12-2.8 7.04-.21 22.88 1.04 5.91.46 10.58.5 14.31.43-3.12 6.41-9.01 14.35-15.19 22.66-9.69 13.04-15.11 20.15-21.3 20.08-1.08-2.48-1.93-4.9-2.6-6.8-3.84-10.87-7.28-31.18 1.9-37.41z" fill="#fe9923" opacity=".18"/><path d="m111.82-39.72c19.36-16.81 29.31-25.45 27.78-35.13-.08-.53-.2-1.04-.34-1.55 7.15 3.72 12.38 8.45 13.34 14.55 1.53 9.68-8.42 18.32-27.78 35.13-20.9 18.14-31.69 27.51-43.38 24.9-4.78-1.06-9.02-5.4-13.91-13.25.3.1.61.18.91.25 11.69 2.6 22.48-6.77 43.38-24.91z" fill="#fe9923"/><path d="m111.82-39.72c19.36-16.81 29.31-25.45 27.78-35.13-.08-.53-.2-1.04-.34-1.55 7.15 3.72 12.38 8.45 13.34 14.55 1.53 9.68-8.42 18.32-27.78 35.13-20.9 18.14-31.69 27.51-43.38 24.9-4.78-1.06-9.02-5.4-13.91-13.25.3.1.61.18.91.25 11.69 2.6 22.48-6.77 43.38-24.91z" fill="#fe9923" opacity=".18"/><path d="m38.59-84.42c7.71-13.88 42.96-7.09 59.04-4 11.7 2.25 29.45 5.67 41.63 12.02.15.51.26 1.02.34 1.55 1.53 9.68-8.42 18.32-27.78 35.13-20.9 18.14-31.68 27.51-43.38 24.91-.31-.07-.61-.15-.91-.25-4.62-7.4-9.82-17.93-16.64-31.82-15.1-30.8-13.51-35.38-12.31-37.54z" fill="#e6741b"/><path d="m38.59-84.42c7.71-13.88 42.96-7.09 59.04-4 11.7 2.25 29.45 5.67 41.63 12.02.15.51.26 1.02.34 1.55 1.53 9.68-8.42 18.32-27.78 35.13-20.9 18.14-31.68 27.51-43.38 24.91-.31-.07-.61-.15-.91-.25-4.62-7.4-9.82-17.93-16.64-31.82-15.1-30.8-13.51-35.38-12.31-37.54z" fill="#fe9923" opacity=".18"/></pattern><pattern id="b" patternTransform="matrix(1 0 0 -1 0 -17516.9531)" xlink:href="#a"/><pattern id="c" patternTransform="matrix(1 0 0 -1 0 -17516.9531)" xlink:href="#a"/><pattern id="d" patternTransform="matrix(1 0 0 -1 0 -17516.9531)" xlink:href="#a"/><pattern id="e" patternTransform="matrix(1 0 0 -1 0 -17516.9531)" xlink:href="#a"/><pattern id="f" patternTransform="matrix(1 0 0 -1 0 -17516.9531)" xlink:href="#a"/><pattern id="g" patternTransform="matrix(1 0 0 -1 0 -17516.9531)" xlink:href="#a"/><pattern id="h" patternTransform="matrix(1 0 0 -1 0 -17516.9531)" xlink:href="#a"/><pattern id="i" patternTransform="matrix(1 0 0 -1 0 -17516.9531)" xlink:href="#a"/><pattern id="j" patternTransform="matrix(1 0 0 -1 0 -17516.9531)" xlink:href="#a"/><pattern id="k" patternTransform="matrix(1 0 0 -1 0 -17516.9531)" xlink:href="#a"/><pattern id="l" patternTransform="matrix(1 0 0 -1 0 -17516.9531)" xlink:href="#a"/><pattern id="m" patternTransform="matrix(1 0 0 -1 0 -17516.9531)" xlink:href="#a"/><pattern id="n" patternTransform="matrix(1 0 0 -1 0 -17516.9531)" xlink:href="#a"/><pattern id="o" patternTransform="matrix(1 0 0 -1 0 -17516.9531)" xlink:href="#a"/><pattern id="p" patternTransform="matrix(1 0 0 -1 0 -17516.9531)" xlink:href="#a"/><pattern id="q" patternTransform="matrix(1 0 0 -1 0 -17516.9531)" xlink:href="#a"/><pattern id="r" patternTransform="matrix(1 0 0 -1 0 -17516.9531)" xlink:href="#a"/><pattern id="s" patternTransform="matrix(1 0 0 -1 0 -17516.9531)" xlink:href="#a"/><pattern id="t" patternTransform="matrix(1 0 0 -1 0 -17516.9531)" xlink:href="#a"/><pattern id="u" patternTransform="matrix(1 0 0 -1 0 -17516.9531)" xlink:href="#a"/><pattern id="v" patternTransform="matrix(1 0 0 -1 0 -17516.9531)" xlink:href="#a"/><pattern id="w" patternTransform="matrix(1 0 0 -1 0 -17516.9531)" xlink:href="#a"/><pattern id="x" patternTransform="matrix(1 0 0 -1 0 -17516.9531)" xlink:href="#a"/><pattern id="y" patternTransform="matrix(1 0 0 -1 0 -17516.9531)" xlink:href="#a"/><pattern id="z" patternTransform="matrix(1 0 0 -1 0 -17516.9531)" xlink:href="#a"/><pattern id="A" patternTransform="matrix(1 0 0 -1 0 -17516.9531)" xlink:href="#a"/><pattern id="B" patternTransform="matrix(1 0 0 -1 0 -17516.9531)" xlink:href="#a"/><pattern id="C" patternTransform="matrix(1 0 0 -1 0 -17516.9531)" xlink:href="#a"/><pattern id="D" patternTransform="matrix(1 0 0 -1 0 -17516.9531)" xlink:href="#a"/><pattern id="E" patternTransform="matrix(1 0 0 -1 0 -17516.9531)" xlink:href="#a"/><pattern id="F" patternTransform="matrix(1 0 0 -1 0 -17516.9531)" xlink:href="#a"/><pattern id="G" patternTransform="matrix(1 0 0 -1 0 -17516.9531)" xlink:href="#a"/><pattern id="H" patternTransform="matrix(1 0 0 -1 0 -17516.9531)" xlink:href="#a"/><pattern id="I" patternTransform="matrix(1 0 0 -1 0 -17516.9531)" xlink:href="#a"/><pattern id="J" patternTransform="matrix(1 0 0 -1 0 -17516.9531)" xlink:href="#a"/><pattern id="K" patternTransform="matrix(1 0 0 -1 0 -17516.9531)" xlink:href="#a"/><pattern id="L" patternTransform="matrix(1 0 0 -1 0 -17516.9531)" xlink:href="#a"/><pattern id="M" patternTransform="matrix(1 0 0 -1 0 -17516.9531)" xlink:href="#a"/><pattern id="N" patternTransform="matrix(1 0 0 -1 0 -17516.9531)" xlink:href="#a"/><pattern id="O" patternTransform="matrix(1 0 0 -1 0 -17516.9531)" xlink:href="#a"/><pattern id="P" patternTransform="matrix(1 0 0 -1 0 -17516.9531)" xlink:href="#a"/><pattern id="Q" patternTransform="matrix(1 0 0 -1 0 -17516.9531)" xlink:href="#a"/><pattern id="R" patternTransform="matrix(1 0 0 -1 0 -17516.9531)" xlink:href="#a"/><pattern id="S" patternTransform="matrix(1 0 0 -1 0 -17516.9531)" xlink:href="#a"/><pattern id="T" patternTransform="matrix(1 0 0 -1 0 -17516.9531)" xlink:href="#a"/><pattern id="U" patternTransform="matrix(1 0 0 -1 0 -17516.9531)" xlink:href="#a"/><pattern id="V" patternTransform="matrix(1 0 0 -1 0 -17516.9531)" xlink:href="#a"/><pattern id="W" patternTransform="matrix(1 0 0 -1 0 -17516.9531)" xlink:href="#a"/><pattern id="X" patternTransform="matrix(1 0 0 -1 0 -17516.9531)" xlink:href="#a"/><pattern id="Y" patternTransform="matrix(1 0 0 -1 0 -17516.9531)" xlink:href="#a"/><pattern id="Z" patternTransform="matrix(1 0 0 -1 0 -17516.9531)" xlink:href="#a"/><pattern id="aa" patternTransform="matrix(1 0 0 -1 0 -17516.9531)" xlink:href="#a"/><pattern id="ab" patternTransform="matrix(1 0 0 -1 0 -17516.9531)" xlink:href="#a"/><pattern id="ac" patternTransform="matrix(1 0 0 -1 0 -17516.9531)" xlink:href="#a"/><pattern id="ad" patternTransform="matrix(1 0 0 -1 0 -17516.9531)" xlink:href="#a"/><pattern id="ae" patternTransform="matrix(1 0 0 -1 0 -17516.9531)" xlink:href="#a"/><pattern id="af" patternTransform="matrix(1 0 0 -1 0 -17516.9531)" xlink:href="#a"/><pattern id="ag" patternTransform="matrix(1 0 0 -1 0 -17516.9531)" xlink:href="#a"/><pattern id="ah" patternTransform="matrix(1 0 0 -1 0 -17516.9531)" xlink:href="#a"/><pattern id="ai" patternTransform="matrix(1 0 0 -1 0 -17516.9531)" xlink:href="#a"/><pattern id="aj" patternTransform="matrix(1 0 0 -1 0 -17516.9531)" xlink:href="#a"/><pattern id="ak" patternTransform="matrix(1 0 0 -1 0 -17516.9531)" xlink:href="#a"/><pattern id="al" patternTransform="matrix(1 0 0 -1 0 -17516.9531)" xlink:href="#a"/><pattern id="am" patternTransform="matrix(1 0 0 -1 0 -17516.9531)" xlink:href="#a"/><pattern id="an" patternTransform="matrix(1 0 0 -1 0 -17516.9531)" xlink:href="#a"/><pattern id="ao" patternTransform="matrix(1 0 0 -1 0 -17516.9531)" xlink:href="#a"/><pattern id="ap" patternTransform="matrix(1 0 0 -1 0 -17516.9531)" xlink:href="#a"/><pattern id="aq" patternTransform="matrix(1 0 0 -1 0 -17516.9531)" xlink:href="#a"/><pattern id="ar" patternTransform="matrix(1 0 0 -1 0 -17516.9531)" xlink:href="#a"/><pattern id="as" patternTransform="matrix(1 0 0 -1 0 -17516.9531)" xlink:href="#a"/><pattern id="at" patternTransform="matrix(1 0 0 -1 0 -17516.9531)" xlink:href="#a"/><pattern id="au" patternTransform="matrix(1 0 0 -1 0 -17516.9531)" xlink:href="#a"/><pattern id="av" patternTransform="matrix(1 0 0 -1 0 -17516.9531)" xlink:href="#a"/><pattern id="aw" patternTransform="matrix(1 0 0 -1 0 -17516.9531)" xlink:href="#a"/><pattern id="ax" patternTransform="matrix(1 0 0 -1 0 -17516.9531)" xlink:href="#a"/><pattern id="ay" patternTransform="matrix(1 0 0 -1 0 -17516.9531)" xlink:href="#a"/><pattern id="az" patternTransform="matrix(1 0 0 -1 0 -17516.9531)" xlink:href="#a"/><pattern id="aA" patternTransform="matrix(1 0 0 -1 0 -17516.9531)" xlink:href="#a"/><pattern id="aB" patternTransform="matrix(1 0 0 -1 0 -17516.9531)" xlink:href="#a"/><pattern id="aC" patternTransform="matrix(1 0 0 -1 0 -17516.9531)" xlink:href="#a"/><pattern id="aD" patternTransform="matrix(1 0 0 -1 0 -17516.9531)" xlink:href="#a"/><pattern id="aE" patternTransform="matrix(1 0 0 -1 0 -17516.9531)" xlink:href="#a"/><pattern id="aF" patternTransform="matrix(1 0 0 -1 0 -17516.9531)" xlink:href="#a"/><pattern id="aG" patternTransform="matrix(1 0 0 -1 0 -17516.9531)" xlink:href="#a"/><pattern id="aH" patternTransform="matrix(1 0 0 -1 0 -17516.9531)" xlink:href="#a"/><pattern id="aI" patternTransform="matrix(1 0 0 -1 0 -17516.9531)" xlink:href="#a"/><pattern id="aJ" patternTransform="matrix(1 0 0 -1 0 -17516.9531)" xlink:href="#a"/><pattern id="aK" patternTransform="matrix(1 0 0 -1 0 -17516.9531)" xlink:href="#a"/><pattern id="aL" patternTransform="matrix(1 0 0 -1 0 -17516.9531)" xlink:href="#a"/><pattern id="aM" patternTransform="matrix(1 0 0 -1 0 -17516.9531)" xlink:href="#a"/><pattern id="aN" patternTransform="matrix(1 0 0 -1 0 -17516.9531)" xlink:href="#a"/><pattern id="aO" patternTransform="matrix(1 0 0 -1 0 -17516.9531)" xlink:href="#a"/><pattern id="aP" patternTransform="matrix(1 0 0 -1 0 -17516.9531)" xlink:href="#a"/><pattern id="aQ" patternTransform="matrix(1 0 0 -1 0 -17516.9531)" xlink:href="#a"/><pattern id="aR" patternTransform="matrix(1 0 0 -1 0 -17516.9531)" xlink:href="#a"/><pattern id="aS" patternTransform="matrix(1 0 0 -1 0 -17516.9531)" xlink:href="#a"/><pattern id="aT" patternTransform="matrix(1 0 0 -1 0 -17516.9531)" xlink:href="#a"/><pattern id="aU" patternTransform="matrix(1 0 0 -1 0 -17516.9531)" xlink:href="#a"/><pattern id="aV" patternTransform="matrix(1 0 0 -1 0 -17516.9531)" xlink:href="#a"/><pattern id="aW" patternTransform="matrix(1 0 0 -1 0 -17516.9531)" xlink:href="#a"/><pattern id="aX" patternTransform="matrix(1 0 0 -1 0 -17516.9531)" xlink:href="#a"/><pattern id="aY" patternTransform="matrix(1 0 0 -1 0 -17516.9531)" xlink:href="#a"/><pattern id="aZ" patternTransform="matrix(1 0 0 -1 0 -17516.9531)" xlink:href="#a"/><pattern id="a0" patternTransform="matrix(1 0 0 -1 0 -17516.9531)" xlink:href="#a"/><pattern id="a1" patternTransform="matrix(1 0 0 -1 0 -17516.9531)" xlink:href="#a"/><pattern id="a2" patternTransform="matrix(1 0 0 -1 0 -17516.9531)" xlink:href="#a"/><pattern id="a3" patternTransform="matrix(1 0 0 -1 0 -17516.9531)" xlink:href="#a"/><pattern id="a4" patternTransform="matrix(1 0 0 -1 0 -17516.9531)" xlink:href="#a"/><pattern id="a5" patternTransform="matrix(1 0 0 -1 0 -17516.9531)" xlink:href="#a"/><pattern id="a6" patternTransform="matrix(1 0 0 -1 0 -17516.9531)" xlink:href="#a"/><pattern id="a7" patternTransform="matrix(1 0 0 -1 0 -17516.9531)" xlink:href="#a"/><pattern id="a8" patternTransform="matrix(1 0 0 -1 0 -17516.9531)" xlink:href="#a"/><pattern id="a9" patternTransform="matrix(1 0 0 -1 0 -17516.9531)" xlink:href="#a"/><pattern id="ba" patternTransform="matrix(1 0 0 -1 0 -17516.9531)" xlink:href="#a"/><pattern id="bb" patternTransform="matrix(1 0 0 -1 0 -17516.9531)" xlink:href="#a"/><path d="m538.06 539.28c9.58-25.31 9.07-32.08 16.15-35.4 1.63-.76 3.33-1.19 5.08-1.34 2.29-6.64 3.85-9.64 7.64-11.52v-7.85c-7.77-.88-16-2.19-24.3-3.51-15.06-2.4-83.6-13.35-84.47-34.16-.21-5.02 3.63-8.06 13-13.58.21-9.28 15.32-12.02 55.9-39.17 19.55-13.08 31.35-22.69 39.87-28.68v-158.45c-3.8-.95-7.97-2.22-12.5-3.6-14.48-4.42-24.01-7.33-26.71-14.91-.83-2.32-2.21-8.45 20.5-37.89 8.14-10.56 14.08-18.2 18.71-22.7v-115.18c-14.93 3.14-35.34 5.93-40.67-2.97-1.38-2.3-1.19-4.47.29-8.38h-62.45c-17.32 15.95-30.37 26.61-47.63 26.27-16.14-.32-28.06-10.11-43.37-26.27h-121.89c-4.23 13.44-9.23 21.59-17.4 25.6-.27.13-.54.24-.82.36-3.21 6.01-7.08 10.13-12.18 12.64-13.62 6.69-35.77-3.94-79.5-25.47-10.04-4.94-18.78-9.26-26.25-13.14h-74.83c-8.11 3.74-18.91 6.34-29.97 9-2.79.67-6.34 1.52-10.26 2.35v115.17c1.81-1.76 3.43-3.05 4.89-3.83 8.17-10.07 13.27-14.85 17.35-13.79 5.72 1.48 7.62 13.85 11.18 38.51 5.5 38.08 1.24 42.57-.62 44.1-2.58 2.12-5.86 2.86-9.78 2.74-.46 7.68-2.2 9.43-3.22 10.26-4.54 3.72-11.21 3.25-19.8 1.11v158.45c8.89-6.25 14.22-8.56 21-6.73 15.22 4.12 21.95 24.79 31.06 52.8 8.22 25.28 13.15 40.44 5.59 50.93-2.51 3.49-6.01 5.89-10.27 7.49-.61 1.97-1.5 3.8-2.73 5.51-7.72 10.71-24.69 11.35-44.64 9.1v7.85c.09-.05.18-.09.28-.14 10.18-4.78 23.26 3.59 34.16 10.56 8.8 5.63 35.91 22.97 32.3 39.13-1.29 5.76-6.15 9.88-13.04 13.14-1.37 5.82-6.39 9.96-13.47 13.22h74.83c-21.5-11.16-32.36-18.63-32.76-26.61-.31-6.34 4.53-12.43 14.44-19.34 6.38-12.82 33.98-26.08 82.41-48.94 70.22-33.14 80.09-29.01 84.47-25.47 11.04 8.94 6.74 30.6-1.86 73.91-3.93 19.79-6.96 35.03-10.55 46.45h24.83c-1.34-8.64 1.02-19.94 3.56-27.12 2.28-6.44 6.63-18.74 14.68-19.75.31-.04.62-.04.92-.05 2.57-5.92 6.4-12.24 12.08-12.95 6.59-.83 12.06 6.34 22.22 20.03 10.76 14.5 20.7 27.87 16.51 33.91-1.92 2.78-5.4 1.93-14.32 1.75.72 1.48 1.29 2.88 1.68 4.18h39.72c-3.55-3.75-7.28-7.84-11.29-12.24-15.71-17.22-50.68-55.56-40.99-70.19 2.11-3.19 5.73-4.3 11.57-4.05-.54-3.49-.16-6.54 1.43-8.95 6.89-10.41 29.67 1.35 93.79 9.94 59.97 8.03 84.57 3.71 89.44 16.77 4.49 12.03-11.43 28.94-27.51 44.14-6.22 6.75-13.52 13.52-20.27 19.79-1.77 1.64-3.49 3.24-5.17 4.78h62.45c1.9-5.01 5.93-12.9 11.51-27.65zm-186.45-484.17c2.73-3.93 6.61-6.93 11.4-9.19.33-1.45.85-2.73 1.6-3.81 13.63-19.63 55.36-16.21 100.68-12.5 44.79 3.67 71.83 5.88 83.51 24.55 14.97 23.91-5.59 58.31-21.6 85.09-5.29 8.86-23.68 39.6-45.48 58.63-14.87 16.7-32.75 30.76-49.65 28.3-12.38-1.81-24.95-27.83-49.59-79.81-25.49-53.77-38.09-80.87-30.87-91.25zm29.98 186.12c-2.2 2.78-5.32 4.62-9.48 5.72-.68 2.67-1.82 5.13-3.52 7.28-8.23 10.41-29.2 7.7-70.81 1.86-42.47-5.96-69.71-9.78-72.67-22.98-1.52-6.75 4.17-12.16 33.54-42.86 15.39-16.09 27.75-29.15 35.4-37.27 1.49-1.72 3.26-3.43 5.31-4.86 2.92-3.08 5.5-5.82 7.69-8.14 3.12-3.6 7.45-7.2 13.04-8.07 19.48-3.05 38.09 29.43 44.72 40.99 10.41 18.16 29.75 51.91 16.77 68.32zm-155.49-175.14c2.62-4.35 10.25-11.26 31.05-27.52 39.43-30.85 45.25-32.05 50.93-31.06 18.1 3.16 27.48 27.35 32.3 39.75 4.54 11.69 15.29 39.41 2.48 54.04-2.45 2.79-5.46 4.75-8.9 6.05-.95 2.52-2.28 4.87-4.1 6.95-13.3 15.19-43.35 5.78-67.08 0-7.07-1.72-49.85-12.14-50.93-30.43-.21-3.63 1.27-6.83 14.25-17.78zm22.73 55.51c6.23 13.91-10.65 34.29-25.47 52.17-8.09 9.77-14.65 17.68-21.04 22.58-10.16 11.77-18.22 19.02-27.99 18.37-13.04-.86-21.94-21.07-39.75-61.49-1.28-2.91-4-9.3-1.24-14.29 1.88-3.4 5.58-4.84 8.07-5.59.23-.07 1.59-.48 3.81-1.09-.2-2.12.02-4.33 1.12-6.32 1.88-3.4 5.58-4.84 8.07-5.59 1.95-.59 82.71-24.87 94.41 1.24zm-223.25-24.19c-1.2-2.16-2.8-6.74 12.31-37.54 13.58-27.7 20.78-42.04 29.64-44.82 4.9-7.85 9.13-12.18 13.91-13.25 11.69-2.6 22.48 6.77 43.38 24.91 19.36 16.81 29.31 25.45 27.78 35.13-.96 6.1-6.2 10.82-13.34 14.55-4.4 15.35-36.67 21.56-54.63 25.02-16.08 3.1-51.32 9.88-59.04-4zm17.95 94.43c5.29-15.71 18.47-54.8 34.62-62.48 5.78-8.71 12.3-14.75 19.22-14.3 15.55.99 16.44 33.66 45.72 91.58 32.06 63.42 61.21 84.03 50.88 99.37-2.35 3.49-6.19 5.87-10.95 7.41-.2 1.97-.86 3.82-2.05 5.59-14.11 20.97-81.64 1.95-84.62 1.09-19.97-5.78-41.34-11.95-55.11-30-21.39-28.01-9.1-64.46 2.29-98.26zm55.14 200.14c-16.36 13.32-27.08 22.05-37.27 18.63-10.83-3.63-14.45-18.78-17.39-31.06-.8-3.33-9.72-42.06 4.97-50.31 1.87-1.05 3.66-1.34 5.68-1.08 1.16-5.31 3.39-9.71 7.32-11.92 7.64-4.29 13.89 4.03 39.75 11.18 27.8 7.69 39.88 3.42 42.86 10.56 3.16 7.57-7.57 19.2-19.28 29.56-7.06 8.49-18.21 17.57-26.64 24.44zm160.68 12.64c-1.91 5.76-5.92 9.33-12.86 12.52-.05.16-.09.32-.14.48-4.77 14.38-22.63 15.1-66.46 30.43-54.77 19.16-69.01 32.77-75.78 26.09-14.01-13.82 36.73-82.1 40.37-86.96 9.21-12.28 21.56-28.74 34.19-39.59 13.39-15.04 28.33-27.39 40.93-23.72 7.35 2.14 12.56 12.19 22.98 32.3 13.35 25.75 20.02 38.63 16.77 48.45zm39.78-27.96c-15.61 2.31-29.65-16.38-43.48-34.78-9.68-12.88-29.05-38.66-21.12-50.31 2.22-3.26 5.67-4.07 11.29-4-.41-3.46.04-6.54 1.71-9 5.59-8.22 18.96-.88 55.28-3.11 32.09-1.97 43.31-9.02 49.69-1.86 8.45 9.47-2.14 32.01-8.7 45.96-10.3 21.92-16.55 38.41-27.71 43-4.84 7.96-9.95 13.06-16.96 14.1zm124.82 62.66c-2.33 4.13-6.72 6.59-12.01 7.99.21 2.39-.28 3.74-.99 5.01-7.32 12.95-34.79 9.59-47.2 8.07-8.29-1.01-44.87-5.48-48.45-22.36-1.47-6.91 3.77-10.4 24.84-37.27 18.26-23.28 22.8-31.45 28.14-32.75 7.92-10.4 10.77-13.51 15.29-13.17 4.43.34 8.16 3.81 24.84 38.51 17.77 36.96 17.81 41.92 15.53 45.96zm27.37-33.58c-27.04-4-42.66-45.22-49.07-62.11-7.45-19.66-13.73-36.23-7.45-53.42 2.78-7.61 8.04-13.73 16.15-19.4 10.08-16.05 34.49-25.55 78.22-42.05 33.95-12.81 51.11-19.08 60.25-12.42 21.87 15.93-.54 77.43-3.11 84.47-8.66 23.76-27.89 62.04-50.97 80.94-13.22 15.6-28.43 26.29-44.02 23.99z" fill="url(#b)"/><path d="m187.34 201.72c-13.04-.86-21.94-21.07-39.75-61.49-.77-1.75-2.05-4.76-2.36-7.97-2.22.62-3.58 1.02-3.81 1.09-2.49.75-6.2 2.2-8.07 5.59-2.76 4.98-.04 11.38 1.24 14.29 17.81 40.42 26.71 60.63 39.75 61.49 9.77.64 17.83-6.6 27.99-18.37-4.9 3.75-9.69 5.72-14.99 5.37z" fill="url(#c)"/><path d="m310.78 243.1c-42.47-5.96-69.71-9.78-72.67-22.98-1.52-6.75 4.17-12.16 33.54-42.86 10.99-11.49 20.42-21.42 27.71-29.12-2.05 1.42-3.82 3.14-5.31 4.86-7.65 8.12-20.01 21.18-35.4 37.27-29.37 30.7-35.06 36.1-33.54 42.86 2.97 13.2 30.2 17.02 72.67 22.98 41.6 5.84 62.57 8.55 70.81-1.86 1.7-2.15 2.84-4.61 3.52-7.28-11.43 3.02-30.83.43-61.33-3.85z" fill="url(#d)"/><path d="m262.78 114.3c23.73 5.78 53.78 15.19 67.08 0 1.82-2.08 3.15-4.43 4.1-6.95-15.25 5.79-38.82-1.34-58.18-6.05-7.07-1.72-49.85-12.14-50.93-30.43-.09-1.48.11-2.89 1.25-4.77-12.98 10.94-14.46 14.14-14.25 17.77 1.08 18.29 43.86 28.71 50.93 30.43z" fill="url(#e)"/><path d="m432.08 226.18c16.9 2.47 34.78-11.59 49.65-28.3-11.73 10.23-24.44 17.08-36.65 15.3-12.38-1.81-24.95-27.83-49.59-79.81-22.84-48.17-35.31-74.93-32.48-87.45-4.79 2.27-8.67 5.26-11.4 9.19-7.21 10.38 5.38 37.48 30.87 91.25 24.64 51.98 37.21 78.01 49.59 79.81z" fill="url(#f)"/><path d="m96.35 320.1c2.98.86 70.51 19.88 84.62-1.09 1.19-1.77 1.85-3.62 2.05-5.59-23.86 7.72-71.19-5.6-73.67-6.32-19.97-5.78-41.34-11.95-55.11-30-21.39-28.01-9.1-64.46 2.29-98.26 3.78-11.22 11.59-34.37 21.62-49.48-16.15 7.69-29.33 46.78-34.62 62.48-11.39 33.8-23.68 70.25-2.29 98.26 13.78 18.05 35.14 24.22 55.11 30z" fill="url(#g)"/><path d="m312.14 363.66c-15.61 2.31-29.65-16.38-43.48-34.78-7.64-10.17-21.3-28.36-22.83-41.31-5.62-.07-9.07.74-11.29 4-7.93 11.65 11.44 37.43 21.12 50.31 13.83 18.4 27.87 37.09 43.48 34.78 7.01-1.04 12.12-6.13 16.97-14.1-1.26.52-2.57.89-3.97 1.1z" fill="url(#h)"/><path d="m495.34 381.75c-9.82 8.04-20.33 12.57-31.02 10.99-27.04-4-42.66-45.22-49.07-62.11-7.45-19.66-13.73-36.23-7.45-53.42.82-2.26 1.88-4.37 3.15-6.4-8.11 5.67-13.37 11.79-16.15 19.4-6.28 17.19 0 33.76 7.45 53.42 6.4 16.89 22.03 58.11 49.07 62.11 15.59 2.31 30.8-8.39 44.02-23.99z" fill="url(#i)"/><path d="m376.75 447.4c-8.29-1.01-44.87-5.48-48.45-22.36-1.47-6.91 3.77-10.4 24.84-37.27 6.62-8.44 11.43-14.89 15.14-19.75-5.34 1.3-9.88 9.47-28.14 32.75-21.07 26.86-26.31 30.35-24.84 37.27 3.58 16.88 40.16 21.35 48.45 22.36 12.42 1.52 39.88 4.87 47.2-8.07.71-1.26 1.2-2.61.99-5.01-11.3 2.99-26.74 1.11-35.19.08z" fill="url(#j)"/><path d="m95.31 527.31c-.11-2.13.39-4.23 1.44-6.34-9.91 6.91-14.76 13-14.44 19.34.4 7.98 11.25 15.45 32.76 26.61h38.97c-38.79-19.09-58.2-28.88-58.73-39.61z" fill="url(#k)"/><path d="m220.82 38.6c5.1-2.5 8.97-6.63 12.18-12.64-13.69 5.89-35.81-4.73-78.68-25.83-.09-.05-.18-.09-.28-.14h-38.97c7.47 3.88 16.21 8.19 26.25 13.14 43.73 21.53 65.88 32.15 79.5 25.47z" fill="url(#l)"/><path d="m117.12 461.15c-14.01-13.82 36.73-82.1 40.37-86.96 5.99-7.99 13.32-17.75 21.19-26.59-12.62 10.85-24.97 27.31-34.19 39.59-3.65 4.86-54.38 73.14-40.37 86.96 6.77 6.68 21.01-6.93 75.78-26.09 43.83-15.33 61.69-16.05 66.46-30.43.05-.16.1-.32.14-.48-10.38 4.78-27.32 8.72-53.6 17.92-54.77 19.16-69.01 32.77-75.78 26.09z" fill="url(#m)"/><path d="m125.31 367.55c-4.66 4.13-9.48 8.05-13.64 11.44-16.36 13.32-27.08 22.05-37.27 18.63-10.83-3.63-14.45-18.78-17.39-31.06-.58-2.44-5.52-23.86-2.35-38.39-2.02-.26-3.81.03-5.68 1.08-14.69 8.25-5.77 46.98-4.97 50.31 2.94 12.28 6.56 27.42 17.39 31.06 10.19 3.42 20.91-5.31 37.27-18.63 8.43-6.87 19.58-15.95 26.64-24.44z" fill="url(#n)"/><path d="m471.16 432.49c0-.2 0-.39 0-.58-9.38 5.52-13.22 8.57-13 13.58.88 20.82 69.42 31.76 84.47 34.16 8.31 1.33 16.53 2.64 24.3 3.51v-14.74c-3.73-.56-7.51-1.16-11.3-1.77-15.06-2.4-83.6-13.35-84.47-34.16z" fill="url(#o)"/><path d="m44.64 474.06c1.23-1.7 2.12-3.53 2.73-5.51-11.59 4.36-28.83 2.65-47.37-.14v14.74c19.95 2.25 36.92 1.61 44.64-9.1z" fill="url(#p)"/><path d="m489.54 542.35c-2.44 2.31-4.89 4.58-7.27 6.79-7.35 6.82-13.88 12.87-20.13 17.78h1.96c1.68-1.55 3.4-3.14 5.17-4.78 6.76-6.27 14.06-13.04 20.27-19.79z" fill="url(#q)"/><path d="m374.82 541.69c-13.12-14.39-39.68-43.51-42.43-61.24-5.84-.25-9.45.86-11.57 4.05-9.68 14.63 25.29 52.96 40.99 70.19 4.01 4.4 7.74 8.49 11.29 12.24h26.36c-7.52-6.45-15.34-15.02-24.66-25.24z" fill="url(#r)"/><path d="m416.48 26.27c17.25.34 30.3-10.32 47.63-26.27h-1.96c-10.75 8.44-20.7 13.51-32.67 13.27-11.18-.22-20.34-4.99-30-13.27h-26.36c15.3 16.16 27.22 25.95 43.37 26.27z" fill="url(#s)"/><path d="m53.7 553.71c-8.16 3.86-19.16 6.51-30.44 9.22-4.78 1.15-11.78 2.83-19.11 4h36.09c7.07-3.27 12.1-7.41 13.46-13.22z" fill="url(#t)"/><path d="m40.23 0h-36.08c-1.38.22-2.76.42-4.15.6v10.74c3.92-.83 7.47-1.68 10.26-2.35 11.06-2.65 21.86-5.25 29.97-8.99z" fill="url(#u)"/><path d="m526.26 8.38c5.33 8.9 25.75 6.11 40.67 2.97v-10.75c-7.87 1.01-15.7 1.23-21.24-.6h-19.14c-1.48 3.91-1.67 6.07-.29 8.38z" fill="url(#v)"/><path d="m539.26 562.3c-3.15-5.26 1.86-9.77 11.8-36.02 4.17-11.01 6.42-18.51 8.23-23.74-1.75.15-3.45.58-5.08 1.34-7.08 3.32-6.57 10.09-16.15 35.4-5.58 14.75-9.61 22.64-11.51 27.65h19.14c-2.86-.94-5.11-2.42-6.43-4.62z" fill="url(#w)"/><path d="m548.22 149.22c-22.71 29.44-21.32 35.56-20.5 37.89 2.7 7.58 12.23 10.49 26.71 14.91 4.53 1.38 8.7 2.65 12.5 3.6v-16.75c-14.2-4.33-23.54-7.26-26.21-14.75-.83-2.32-2.21-8.45 20.5-37.89 2.04-2.64 3.94-5.1 5.71-7.37v-2.33c-4.63 4.51-10.57 12.15-18.71 22.7z" fill="url(#x)"/><path d="m19.8 204.5c1.02-.84 2.76-2.58 3.22-10.26-6.02-.2-13.57-2.49-22.52-5.22-.17-.05-.33-.1-.5-.15v16.75c8.58 2.14 15.26 2.61 19.8-1.11z" fill="url(#y)"/><path d="m0 126.51v2.33c1.75-2.23 3.37-4.29 4.89-6.16-1.47.79-3.08 2.07-4.89 3.83z" fill="url(#z)"/><path d="m317.39 563.18c-15.84 1.25-18.76 3.84-22.88 1.04-9.18-6.23-5.74-26.54-1.9-37.41.67-1.9 1.53-4.32 2.6-6.8-.31 0-.61 0-.92.05-8.06 1.01-12.41 13.31-14.68 19.75-2.54 7.18-4.9 18.48-3.56 27.12h57.33c-.39-1.3-.96-2.7-1.68-4.18-3.73-.08-8.4-.04-14.31.43z" fill="url(#A)"/><path d="m84.61 101.41c17.97-3.46 50.23-9.67 54.63-25.02-12.18 6.35-29.94 9.77-41.63 12.02-16.08 3.1-51.32 9.88-59.04-4-1.2-2.16-2.8-6.74 12.31-37.54 6.82-13.9 12.02-24.42 16.64-31.82-8.86 2.79-16.05 17.13-29.64 44.82-15.1 30.8-13.51 35.38-12.31 37.54 7.71 13.88 42.96 7.09 59.04 4z" fill="url(#B)"/><path d="m146.34 125.95c-1.1 1.98-1.32 4.19-1.12 6.32 16.4-4.56 80.3-20.67 90.6 2.34 6.23 13.91-10.65 34.29-25.47 52.17-2.85 3.44-5.51 6.65-8.04 9.58 6.38-4.89 12.95-12.81 21.04-22.58 14.82-17.89 31.7-38.26 25.47-52.17-11.7-26.11-92.46-1.83-94.41-1.24-2.49.75-6.2 2.2-8.07 5.59z" fill="url(#C)"/><path d="m146.34 125.95c-1.1 1.98-1.32 4.19-1.12 6.32 16.4-4.56 80.3-20.67 90.6 2.34 6.23 13.91-10.65 34.29-25.47 52.17-2.85 3.44-5.51 6.65-8.04 9.58 6.38-4.89 12.95-12.81 21.04-22.58 14.82-17.89 31.7-38.26 25.47-52.17-11.7-26.11-92.46-1.83-94.41-1.24-2.49.75-6.2 2.2-8.07 5.59z" fill="url(#D)" opacity=".18"/><path d="m235.83 134.6c-10.31-23-74.2-6.9-90.6-2.34.31 3.21 1.59 6.22 2.36 7.97 17.81 40.42 26.71 60.63 39.75 61.49 5.3.35 10.09-1.62 14.99-5.37 2.53-2.93 5.19-6.14 8.04-9.58 14.82-17.89 31.7-38.26 25.47-52.17z" fill="url(#E)"/><path d="m235.83 134.6c-10.31-23-74.2-6.9-90.6-2.34.31 3.21 1.59 6.22 2.36 7.97 17.81 40.42 26.71 60.63 39.75 61.49 5.3.35 10.09-1.62 14.99-5.37 2.53-2.93 5.19-6.14 8.04-9.58 14.82-17.89 31.7-38.26 25.47-52.17z" fill="url(#F)" opacity=".18"/><path d="m320.1 131.92c-5.6.88-9.92 4.48-13.04 8.07-2.19 2.32-4.77 5.06-7.69 8.14 2.24-1.56 4.81-2.76 7.74-3.22 19.48-3.05 38.09 29.43 44.72 40.99 9.04 15.78 24.82 43.32 20.29 61.04 4.16-1.1 7.28-2.94 9.48-5.72 12.98-16.41-6.36-50.16-16.77-68.32-6.63-11.56-25.24-44.04-44.72-40.99z" fill="url(#G)"/><path d="m320.1 131.92c-5.6.88-9.92 4.48-13.04 8.07-2.19 2.32-4.77 5.06-7.69 8.14 2.24-1.56 4.81-2.76 7.74-3.22 19.48-3.05 38.09 29.43 44.72 40.99 9.04 15.78 24.82 43.32 20.29 61.04 4.16-1.1 7.28-2.94 9.48-5.72 12.98-16.41-6.36-50.16-16.77-68.32-6.63-11.56-25.24-44.04-44.72-40.99z" fill="url(#H)" opacity=".18"/><path d="m351.82 185.92c-6.63-11.56-25.24-44.04-44.72-40.99-2.92.46-5.5 1.66-7.74 3.22-7.29 7.7-16.72 17.63-27.71 29.12-29.37 30.7-35.06 36.1-33.54 42.86 2.97 13.2 30.2 17.02 72.67 22.98 30.5 4.28 49.9 6.87 61.33 3.85 4.53-17.72-11.25-45.26-20.29-61.04z" fill="url(#I)"/><path d="m351.82 185.92c-6.63-11.56-25.24-44.04-44.72-40.99-2.92.46-5.5 1.66-7.74 3.22-7.29 7.7-16.72 17.63-27.71 29.12-29.37 30.7-35.06 36.1-33.54 42.86 2.97 13.2 30.2 17.02 72.67 22.98 30.5 4.28 49.9 6.87 61.33 3.85 4.53-17.72-11.25-45.26-20.29-61.04z" fill="url(#J)" opacity=".18"/><path d="m295.08 20.51c18.1 3.16 27.48 27.35 32.3 39.75 3.89 10.03 12.35 31.85 6.59 47.09 3.44-1.3 6.45-3.26 8.9-6.05 12.81-14.63 2.05-42.35-2.48-54.04-4.81-12.4-14.2-36.59-32.3-39.75-5.68-.99-11.5.21-50.93 31.06-20.8 16.27-28.43 23.17-31.05 27.52 4.5-3.8 10.37-8.52 18.05-14.52 39.43-30.85 45.25-32.05 50.92-31.06z" fill="url(#K)"/><path d="m295.08 20.51c18.1 3.16 27.48 27.35 32.3 39.75 3.89 10.03 12.35 31.85 6.59 47.09 3.44-1.3 6.45-3.26 8.9-6.05 12.81-14.63 2.05-42.35-2.48-54.04-4.81-12.4-14.2-36.59-32.3-39.75-5.68-.99-11.5.21-50.93 31.06-20.8 16.27-28.43 23.17-31.05 27.52 4.5-3.8 10.37-8.52 18.05-14.52 39.43-30.85 45.25-32.05 50.92-31.06z" fill="url(#L)" opacity=".18"/><path d="m224.85 70.86c1.08 18.29 43.86 28.71 50.93 30.43 19.36 4.72 42.94 11.84 58.18 6.05 5.76-15.24-2.7-37.06-6.59-47.09-4.81-12.4-14.2-36.59-32.3-39.75-5.68-.99-11.5.21-50.93 31.06-7.68 6.01-13.55 10.73-18.05 14.52-1.14 1.89-1.33 3.29-1.25 4.77z" fill="url(#M)"/><path d="m224.85 70.86c1.08 18.29 43.86 28.71 50.93 30.43 19.36 4.72 42.94 11.84 58.18 6.05 5.76-15.24-2.7-37.06-6.59-47.09-4.81-12.4-14.2-36.59-32.3-39.75-5.68-.99-11.5.21-50.93 31.06-7.68 6.01-13.55 10.73-18.05 14.52-1.14 1.89-1.33 3.29-1.25 4.77z" fill="url(#N)" opacity=".18"/><path d="m452.3 42.62c44.79 3.67 71.83 5.88 83.51 24.55 14.97 23.91-5.59 58.31-21.6 85.09-4.2 7.03-16.64 27.83-32.48 45.63 21.81-19.03 40.19-49.77 45.48-58.63 16.01-26.79 36.57-61.18 21.6-85.09-11.69-18.67-38.72-20.88-83.51-24.55-45.32-3.71-87.05-7.13-100.68 12.5-.75 1.08-1.27 2.35-1.6 3.81 19.12-9.04 53.05-6.27 89.29-3.31z" fill="url(#O)"/><path d="m452.3 42.62c44.79 3.67 71.83 5.88 83.51 24.55 14.97 23.91-5.59 58.31-21.6 85.09-4.2 7.03-16.64 27.83-32.48 45.63 21.81-19.03 40.19-49.77 45.48-58.63 16.01-26.79 36.57-61.18 21.6-85.09-11.69-18.67-38.72-20.88-83.51-24.55-45.32-3.71-87.05-7.13-100.68 12.5-.75 1.08-1.27 2.35-1.6 3.81 19.12-9.04 53.05-6.27 89.29-3.31z" fill="url(#P)" opacity=".18"/><path d="m395.49 133.37c24.64 51.98 37.21 78.01 49.59 79.81 12.21 1.78 24.92-5.06 36.65-15.3 15.85-17.8 28.28-38.6 32.48-45.63 16.01-26.79 36.57-61.18 21.6-85.09-11.69-18.67-38.72-20.88-83.51-24.55-36.24-2.97-70.17-5.73-89.29 3.31-2.83 12.52 9.64 39.27 32.48 87.45z" fill="url(#Q)"/><path d="m395.49 133.37c24.64 51.98 37.21 78.01 49.59 79.81 12.21 1.78 24.92-5.06 36.65-15.3 15.85-17.8 28.28-38.6 32.48-45.63 16.01-26.79 36.57-61.18 21.6-85.09-11.69-18.67-38.72-20.88-83.51-24.55-36.24-2.97-70.17-5.73-89.29 3.31-2.83 12.52 9.64 39.27 32.48 87.45z" fill="url(#R)" opacity=".18"/><path d="m84.38 128.06c15.55.99 16.44 33.66 45.72 91.58 28.35 56.09 54.43 78.69 52.93 93.78 4.77-1.54 8.6-3.92 10.95-7.41 10.33-15.35-18.82-35.96-50.88-99.37-29.28-57.93-30.16-90.59-45.72-91.58-6.92-.44-13.44 5.6-19.22 14.3 2.03-.97 4.11-1.44 6.22-1.3z" fill="url(#S)"/><path d="m84.38 128.06c15.55.99 16.44 33.66 45.72 91.58 28.35 56.09 54.43 78.69 52.93 93.78 4.77-1.54 8.6-3.92 10.95-7.41 10.33-15.35-18.82-35.96-50.88-99.37-29.28-57.93-30.16-90.59-45.72-91.58-6.92-.44-13.44 5.6-19.22 14.3 2.03-.97 4.11-1.44 6.22-1.3z" fill="url(#T)" opacity=".18"/><path d="m54.24 277.11c13.78 18.05 35.14 24.22 55.11 30 2.48.72 49.81 14.04 73.67 6.32 1.5-15.09-24.57-37.69-52.93-93.78-29.28-57.93-30.16-90.59-45.72-91.58-2.12-.14-4.19.34-6.22 1.3-10.04 15.11-17.84 38.26-21.62 49.48-11.39 33.8-23.68 70.25-2.29 98.26z" fill="url(#U)"/><path d="m54.24 277.11c13.78 18.05 35.14 24.22 55.11 30 2.48.72 49.81 14.04 73.67 6.32 1.5-15.09-24.57-37.69-52.93-93.78-29.28-57.93-30.16-90.59-45.72-91.58-2.12-.14-4.19.34-6.22 1.3-10.04 15.11-17.84 38.26-21.62 49.48-11.39 33.8-23.68 70.25-2.29 98.26z" fill="url(#V)" opacity=".18"/><path d="m289.82 288.47c32.09-1.97 43.31-9.02 49.69-1.86 8.45 9.47-2.14 32.01-8.7 45.96-5.62 11.97-10.04 22.32-14.71 30 11.16-4.6 17.41-21.08 27.71-43 6.55-13.95 17.14-36.49 8.7-45.96-6.38-7.16-17.6-.1-49.69 1.86-36.31 2.22-49.69-5.11-55.28 3.11-1.67 2.46-2.12 5.54-1.71 9 8.54.1 22.09 2.24 43.99.89z" fill="url(#W)"/><path d="m289.82 288.47c32.09-1.97 43.31-9.02 49.69-1.86 8.45 9.47-2.14 32.01-8.7 45.96-5.62 11.97-10.04 22.32-14.71 30 11.16-4.6 17.41-21.08 27.71-43 6.55-13.95 17.14-36.49 8.7-45.96-6.38-7.16-17.6-.1-49.69 1.86-36.31 2.22-49.69-5.11-55.28 3.11-1.67 2.46-2.12 5.54-1.71 9 8.54.1 22.09 2.24 43.99.89z" fill="url(#X)" opacity=".18"/><path d="m312.14 363.66c1.39-.21 2.71-.58 3.97-1.1 4.67-7.68 9.09-18.03 14.71-30 6.55-13.95 17.14-36.49 8.7-45.96-6.38-7.16-17.6-.1-49.69 1.86-21.91 1.34-35.45-.79-43.99-.89 1.53 12.95 15.19 31.14 22.83 41.31 13.83 18.4 27.87 37.09 43.48 34.78z" fill="url(#Y)"/><path d="m312.14 363.66c1.39-.21 2.71-.58 3.97-1.1 4.67-7.68 9.09-18.03 14.71-30 6.55-13.95 17.14-36.49 8.7-45.96-6.38-7.16-17.6-.1-49.69 1.86-21.91 1.34-35.45-.79-43.99-.89 1.53 12.95 15.19 31.14 22.83 41.31 13.83 18.4 27.87 37.09 43.48 34.78z" fill="url(#Z)" opacity=".18"/><path d="m536.42 229.34c21.87 15.93-.54 77.43-3.11 84.47-6.97 19.13-20.8 47.67-37.97 67.94 23.08-18.9 42.31-57.18 50.97-80.94 2.57-7.04 24.98-68.54 3.11-84.47-9.14-6.66-26.3-.39-60.25 12.42-43.73 16.5-68.14 26-78.22 42.05 13.39-9.36 34.56-17.48 65.22-29.05 33.95-12.81 51.11-19.08 60.25-12.42z" fill="url(#aa)"/><path d="m536.42 229.34c21.87 15.93-.54 77.43-3.11 84.47-6.97 19.13-20.8 47.67-37.97 67.94 23.08-18.9 42.31-57.18 50.97-80.94 2.57-7.04 24.98-68.54 3.11-84.47-9.14-6.66-26.3-.39-60.25 12.42-43.73 16.5-68.14 26-78.22 42.05 13.39-9.36 34.56-17.48 65.22-29.05 33.95-12.81 51.11-19.08 60.25-12.42z" fill="url(#ab)" opacity=".18"/><path d="m415.25 330.63c6.4 16.89 22.03 58.11 49.07 62.11 10.69 1.58 21.2-2.95 31.02-10.99 17.17-20.26 31-48.81 37.97-67.94 2.57-7.04 24.98-68.54 3.11-84.47-9.14-6.66-26.3-.39-60.25 12.42-30.66 11.57-51.83 19.69-65.22 29.05-1.27 2.02-2.32 4.14-3.15 6.4-6.28 17.19 0 33.76 7.45 53.42z" fill="url(#ac)"/><path d="m415.25 330.63c6.4 16.89 22.03 58.11 49.07 62.11 10.69 1.58 21.2-2.95 31.02-10.99 17.17-20.26 31-48.81 37.97-67.94 2.57-7.04 24.98-68.54 3.11-84.47-9.14-6.66-26.3-.39-60.25 12.42-30.66 11.57-51.83 19.69-65.22 29.05-1.27 2.02-2.32 4.14-3.15 6.4-6.28 17.19 0 33.76 7.45 53.42z" fill="url(#ad)" opacity=".18"/><path d="m383.58 354.85c-4.52-.35-7.37 2.77-15.29 13.17.74-.18 1.49-.23 2.29-.17 4.43.34 8.16 3.81 24.84 38.51 12.22 25.41 16.05 35.7 16.52 40.96 5.29-1.4 9.68-3.87 12.01-7.99 2.28-4.04 2.24-9.01-15.53-45.96-16.68-34.7-20.42-38.17-24.84-38.51z" fill="url(#ae)"/><path d="m383.58 354.85c-4.52-.35-7.37 2.77-15.29 13.17.74-.18 1.49-.23 2.29-.17 4.43.34 8.16 3.81 24.84 38.51 12.22 25.41 16.05 35.7 16.52 40.96 5.29-1.4 9.68-3.87 12.01-7.99 2.28-4.04 2.24-9.01-15.53-45.96-16.68-34.7-20.42-38.17-24.84-38.51z" fill="url(#af)" opacity=".18"/><path d="m370.58 367.85c-.81-.06-1.56-.01-2.29.17-3.71 4.86-8.52 11.31-15.14 19.75-21.07 26.86-26.31 30.35-24.84 37.27 3.58 16.88 40.16 21.35 48.45 22.36 8.46 1.03 23.89 2.91 35.19-.08-.46-5.26-4.3-15.55-16.52-40.96-16.68-34.7-20.42-38.17-24.84-38.51z" fill="url(#ag)"/><path d="m370.58 367.85c-.81-.06-1.56-.01-2.29.17-3.71 4.86-8.52 11.31-15.14 19.75-21.07 26.86-26.31 30.35-24.84 37.27 3.58 16.88 40.16 21.35 48.45 22.36 8.46 1.03 23.89 2.91 35.19-.08-.46-5.26-4.3-15.55-16.52-40.96-16.68-34.7-20.42-38.17-24.84-38.51z" fill="url(#ah)" opacity=".18"/><path d="m263.63 446.57c-4.38-3.55-14.25-7.67-84.47 25.47-48.43 22.85-76.03 36.12-82.41 48.94 13.6-9.49 36.77-20.54 69.41-35.94 70.22-33.14 80.09-29.01 84.47-25.47 11.04 8.94 6.74 30.6-1.86 73.91-2.6 13.06-4.8 24.14-7.03 33.45h9.47c3.59-11.42 6.62-26.65 10.55-46.45 8.6-43.31 12.91-64.97 1.86-73.91z" fill="url(#ai)"/><path d="m263.63 446.57c-4.38-3.55-14.25-7.67-84.47 25.47-48.43 22.85-76.03 36.12-82.41 48.94 13.6-9.49 36.77-20.54 69.41-35.94 70.22-33.14 80.09-29.01 84.47-25.47 11.04 8.94 6.74 30.6-1.86 73.91-2.6 13.06-4.8 24.14-7.03 33.45h9.47c3.59-11.42 6.62-26.65 10.55-46.45 8.6-43.31 12.91-64.97 1.86-73.91z" fill="url(#aj)" opacity=".18"/><path d="m250.63 459.57c-4.38-3.55-14.25-7.67-84.47 25.47-32.64 15.4-55.81 26.45-69.41 35.94-1.05 2.11-1.55 4.21-1.44 6.34.53 10.73 19.94 20.52 58.73 39.61h87.7c2.23-9.31 4.43-20.38 7.03-33.45 8.6-43.31 12.91-64.97 1.86-73.91z" fill="url(#ak)"/><path d="m250.63 459.57c-4.38-3.55-14.25-7.67-84.47 25.47-32.64 15.4-55.81 26.45-69.41 35.94-1.05 2.11-1.55 4.21-1.44 6.34.53 10.73 19.94 20.52 58.73 39.61h87.7c2.23-9.31 4.43-20.38 7.03-33.45 8.6-43.31 12.91-64.97 1.86-73.91z" fill="url(#al)" opacity=".18"/><path d="m233.82 25.6c8.17-4.01 13.17-12.16 17.4-25.6h-9.47c-2.64 11.03-5.32 19.57-8.74 25.96.27-.12.55-.23.81-.36z" fill="url(#am)"/><path d="m233.82 25.6c8.17-4.01 13.17-12.16 17.4-25.6h-9.47c-2.64 11.03-5.32 19.57-8.74 25.96.27-.12.55-.23.81-.36z" fill="url(#an)" opacity=".18"/><path d="m233 25.96c3.42-6.39 6.1-14.94 8.74-25.96h-87.7c.09.05.18.09.28.14 42.87 21.1 64.99 31.72 78.68 25.83z" fill="url(#ao)"/><path d="m233 25.96c3.42-6.39 6.1-14.94 8.74-25.96h-87.7c.09.05.18.09.28.14 42.87 21.1 64.99 31.72 78.68 25.83z" fill="url(#ap)" opacity=".18"/><path d="m219.6 323.88c-12.6-3.66-27.54 8.69-40.93 23.72 9.57-8.23 19.3-13.23 27.93-10.72 7.35 2.14 12.56 12.19 22.98 32.3 13.13 25.33 19.8 38.21 16.91 47.97 6.93-3.19 10.95-6.76 12.86-12.52 3.25-9.82-3.42-22.7-16.77-48.45-10.42-20.11-15.64-30.16-22.98-32.3z" fill="url(#aq)"/><path d="m219.6 323.88c-12.6-3.66-27.54 8.69-40.93 23.72 9.57-8.23 19.3-13.23 27.93-10.72 7.35 2.14 12.56 12.19 22.98 32.3 13.13 25.33 19.8 38.21 16.91 47.97 6.93-3.19 10.95-6.76 12.86-12.52 3.25-9.82-3.42-22.7-16.77-48.45-10.42-20.11-15.64-30.16-22.98-32.3z" fill="url(#ar)" opacity=".18"/><path d="m229.58 369.18c-10.42-20.11-15.64-30.16-22.98-32.3-8.63-2.51-18.35 2.49-27.93 10.72-7.86 8.84-15.19 18.6-21.19 26.59-3.65 4.86-54.38 73.14-40.37 86.96 6.77 6.68 21.01-6.93 75.78-26.09 26.28-9.19 43.22-13.14 53.6-17.92 2.89-9.76-3.78-22.63-16.91-47.97z" fill="url(#as)"/><path d="m229.58 369.18c-10.42-20.11-15.64-30.16-22.98-32.3-8.63-2.51-18.35 2.49-27.93 10.72-7.86 8.84-15.19 18.6-21.19 26.59-3.65 4.86-54.38 73.14-40.37 86.96 6.77 6.68 21.01-6.93 75.78-26.09 26.28-9.19 43.22-13.14 53.6-17.92 2.89-9.76-3.78-22.63-16.91-47.97z" fill="url(#at)" opacity=".18"/><path d="m131.59 350.99c1.87 4.47-1.12 10.36-6.28 16.56 11.71-10.36 22.44-21.99 19.28-29.56-2.98-7.14-15.06-2.87-42.86-10.56-25.86-7.15-32.11-15.47-39.75-11.18-3.93 2.21-6.16 6.61-7.32 11.92 6.21.8 14.55 6.86 34.07 12.26 27.8 7.69 39.88 3.42 42.86 10.56z" fill="url(#au)"/><path d="m131.59 350.99c1.87 4.47-1.12 10.36-6.28 16.56 11.71-10.36 22.44-21.99 19.28-29.56-2.98-7.14-15.06-2.87-42.86-10.56-25.86-7.15-32.11-15.47-39.75-11.18-3.93 2.21-6.16 6.61-7.32 11.92 6.21.8 14.55 6.86 34.07 12.26 27.8 7.69 39.88 3.42 42.86 10.56z" fill="url(#av)" opacity=".18"/><path d="m57.01 366.56c2.94 12.28 6.56 27.42 17.39 31.06 10.19 3.42 20.91-5.31 37.27-18.63 4.16-3.39 8.98-7.31 13.64-11.44 5.16-6.2 8.15-12.09 6.28-16.56-2.98-7.14-15.06-2.87-42.86-10.56-19.52-5.4-27.87-11.46-34.07-12.26-3.17 14.53 1.77 35.95 2.35 38.39z" fill="url(#aw)"/><path d="m57.01 366.56c2.94 12.28 6.56 27.42 17.39 31.06 10.19 3.42 20.91-5.31 37.27-18.63 4.16-3.39 8.98-7.31 13.64-11.44 5.16-6.2 8.15-12.09 6.28-16.56-2.98-7.14-15.06-2.87-42.86-10.56-19.52-5.4-27.87-11.46-34.07-12.26-3.17 14.53 1.77 35.95 2.35 38.39z" fill="url(#ax)" opacity=".18"/><path d="m471.16 431.91c8.89-5.23 22.74-12.69 42.9-26.17 31.53-21.1 42.93-33.18 52.87-35.57v-6.11c-8.52 5.99-20.33 15.6-39.87 28.68-40.57 27.15-55.68 29.88-55.9 39.17z" fill="url(#ay)"/><path d="m471.16 431.91c8.89-5.23 22.74-12.69 42.9-26.17 31.53-21.1 42.93-33.18 52.87-35.57v-6.11c-8.52 5.99-20.33 15.6-39.87 28.68-40.57 27.15-55.68 29.88-55.9 39.17z" fill="url(#az)" opacity=".18"/><path d="m471.16 431.91c0 .19-.01.38 0 .58.88 20.82 69.42 31.76 84.47 34.16 3.8.61 7.57 1.21 11.3 1.77v-98.25c-9.94 2.39-21.34 14.47-52.87 35.57-20.15 13.48-34.01 20.94-42.9 26.17z" fill="url(#aA)"/><path d="m471.16 431.91c0 .19-.01.38 0 .58.88 20.82 69.42 31.76 84.47 34.16 3.8.61 7.57 1.21 11.3 1.77v-98.25c-9.94 2.39-21.34 14.47-52.87 35.57-20.15 13.48-34.01 20.94-42.9 26.17z" fill="url(#aB)" opacity=".18"/><path d="m8 370.34c15.22 4.12 21.95 24.79 31.06 52.8 6.89 21.17 11.46 35.25 8.32 45.43 4.26-1.6 7.76-4.01 10.27-7.49 7.56-10.5 2.63-25.65-5.59-50.93-9.11-28.01-15.83-48.68-31.06-52.8-6.78-1.84-12.1.48-21 6.73v6.11c2.65-.64 5.2-.59 8 .16z" fill="url(#aC)"/><path d="m8 370.34c15.22 4.12 21.95 24.79 31.06 52.8 6.89 21.17 11.46 35.25 8.32 45.43 4.26-1.6 7.76-4.01 10.27-7.49 7.56-10.5 2.63-25.65-5.59-50.93-9.11-28.01-15.83-48.68-31.06-52.8-6.78-1.84-12.1.48-21 6.73v6.11c2.65-.64 5.2-.59 8 .16z" fill="url(#aD)" opacity=".18"/><path d="m47.37 468.56c3.14-10.18-1.43-24.25-8.32-45.43-9.11-28.01-15.83-48.68-31.06-52.8-2.8-.76-5.35-.8-8-.16v98.25c18.55 2.79 35.79 4.49 47.38.14z" fill="url(#aE)"/><path d="m47.37 468.56c3.14-10.18-1.43-24.25-8.32-45.43-9.11-28.01-15.83-48.68-31.06-52.8-2.8-.76-5.35-.8-8-.16v98.25c18.55 2.79 35.79 4.49 47.38.14z" fill="url(#aF)" opacity=".18"/><path d="m504.05 511.21c3.23 8.67-4.13 19.87-14.51 31.14 16.08-15.2 32-32.11 27.51-44.14-4.87-13.06-29.47-8.74-89.44-16.77-64.12-8.59-86.9-20.35-93.79-9.94-1.59 2.41-1.97 5.46-1.43 8.95 13.2.56 37.77 8.04 82.22 13.99 59.97 8.03 84.57 3.71 89.44 16.77z" fill="url(#aG)"/><path d="m504.05 511.21c3.23 8.67-4.13 19.87-14.51 31.14 16.08-15.2 32-32.11 27.51-44.14-4.87-13.06-29.47-8.74-89.44-16.77-64.12-8.59-86.9-20.35-93.79-9.94-1.59 2.41-1.97 5.46-1.43 8.95 13.2.56 37.77 8.04 82.22 13.99 59.97 8.03 84.57 3.71 89.44 16.77z" fill="url(#aH)" opacity=".18"/><path d="m489.54 542.35c10.38-11.27 17.74-22.47 14.51-31.14-4.87-13.06-29.47-8.74-89.44-16.77-44.45-5.95-69.03-13.43-82.22-13.99 2.74 17.73 29.3 46.85 42.43 61.24 9.32 10.22 17.14 18.79 24.66 25.24h62.67c6.25-4.91 12.77-10.96 20.13-17.78 2.38-2.21 4.83-4.48 7.27-6.79z" fill="url(#aI)"/><path d="m489.54 542.35c10.38-11.27 17.74-22.47 14.51-31.14-4.87-13.06-29.47-8.74-89.44-16.77-44.45-5.95-69.03-13.43-82.22-13.99 2.74 17.73 29.3 46.85 42.43 61.24 9.32 10.22 17.14 18.79 24.66 25.24h62.67c6.25-4.91 12.77-10.96 20.13-17.78 2.38-2.21 4.83-4.48 7.27-6.79z" fill="url(#aJ)" opacity=".18"/><path d="m462.14 0h-62.67c9.66 8.28 18.82 13.05 30 13.27 11.97.24 21.91-4.83 32.67-13.27z" fill="url(#aK)"/><path d="m462.14 0h-62.67c9.66 8.28 18.82 13.05 30 13.27 11.97.24 21.91-4.83 32.67-13.27z" fill="url(#aL)" opacity=".18"/><path d="m53.74 553.57s-.03.09-.04.14c6.88-3.26 11.75-7.38 13.04-13.14 3.61-16.16-23.5-33.5-32.3-39.13-10.9-6.97-23.98-15.34-34.16-10.56-.1.05-.19.09-.28.14v12.35c7.18 1.95 14.72 6.77 21.44 11.07 8.8 5.63 35.91 22.97 32.3 39.13z" fill="url(#aM)"/><path d="m53.74 553.57s-.03.09-.04.14c6.88-3.26 11.75-7.38 13.04-13.14 3.61-16.16-23.5-33.5-32.3-39.13-10.9-6.97-23.98-15.34-34.16-10.56-.1.05-.19.09-.28.14v12.35c7.18 1.95 14.72 6.77 21.44 11.07 8.8 5.63 35.91 22.97 32.3 39.13z" fill="url(#aN)" opacity=".18"/><path d="m53.7 553.71s.03-.09.04-.14c3.61-16.16-23.5-33.5-32.3-39.13-6.72-4.3-14.26-9.11-21.44-11.07v63.56h4.15c7.33-1.18 14.33-2.85 19.11-4 11.28-2.71 22.28-5.36 30.44-9.22z" fill="url(#aO)"/><path d="m53.7 553.71s.03-.09.04-.14c3.61-16.16-23.5-33.5-32.3-39.13-6.72-4.3-14.26-9.11-21.44-11.07v63.56h4.15c7.33-1.18 14.33-2.85 19.11-4 11.28-2.71 22.28-5.36 30.44-9.22z" fill="url(#aP)" opacity=".18"/><path d="m0 0v.6c1.39-.18 2.77-.38 4.15-.6z" fill="url(#aQ)"/><path d="m0 0v.6c1.39-.18 2.77-.38 4.15-.6z" fill="url(#aR)" opacity=".18"/><path d="m566.93.6v-.6h-21.24c5.54 1.83 13.37 1.61 21.24.6z" fill="url(#aS)"/><path d="m566.93.6v-.6h-21.24c5.54 1.83 13.37 1.61 21.24.6z" fill="url(#aT)" opacity=".18"/><path d="m559.29 502.54c2.46-.21 5.03.12 7.64.83v-12.35c-3.79 1.88-5.36 4.88-7.64 11.52z" fill="url(#aU)"/><path d="m559.29 502.54c2.46-.21 5.03.12 7.64.83v-12.35c-3.79 1.88-5.36 4.88-7.64 11.52z" fill="url(#aV)" opacity=".18"/><path d="m559.29 502.54c-1.8 5.24-4.06 12.73-8.23 23.74-9.94 26.26-14.95 30.77-11.8 36.02 1.32 2.2 3.57 3.68 6.43 4.62h21.24v-63.56c-2.61-.71-5.18-1.04-7.64-.82z" fill="url(#aW)"/><path d="m559.29 502.54c-1.8 5.24-4.06 12.73-8.23 23.74-9.94 26.26-14.95 30.77-11.8 36.02 1.32 2.2 3.57 3.68 6.43 4.62h21.24v-63.56c-2.61-.71-5.18-1.04-7.64-.82z" fill="url(#aX)" opacity=".18"/><path d="m540.72 174.11c2.67 7.49 12.01 10.42 26.21 14.75v-60.01c-1.78 2.27-3.67 4.73-5.71 7.37-22.71 29.44-21.32 35.56-20.5 37.89z" fill="url(#aY)"/><path d="m540.72 174.11c2.67 7.49 12.01 10.42 26.21 14.75v-60.01c-1.78 2.27-3.67 4.73-5.71 7.37-22.71 29.44-21.32 35.56-20.5 37.89z" fill="url(#aZ)" opacity=".18"/><path d="m9.24 121.89c5.72 1.48 7.62 13.85 11.18 38.51 2.48 17.19 2.97 27.52 2.6 33.83 3.92.13 7.2-.62 9.78-2.74 1.87-1.53 6.12-6.02.62-44.1-3.56-24.66-5.46-37.03-11.18-38.51-4.08-1.06-9.18 3.72-17.35 13.79 1.6-.86 3.03-1.13 4.35-.79z" fill="url(#a0)"/><path d="m9.24 121.89c5.72 1.48 7.62 13.85 11.18 38.51 2.48 17.19 2.97 27.52 2.6 33.83 3.92.13 7.2-.62 9.78-2.74 1.87-1.53 6.12-6.02.62-44.1-3.56-24.66-5.46-37.03-11.18-38.51-4.08-1.06-9.18 3.72-17.35 13.79 1.6-.86 3.03-1.13 4.35-.79z" fill="url(#a1)" opacity=".18"/><path d="m23.02 194.23c.38-6.32-.12-16.65-2.6-33.83-3.56-24.66-5.46-37.03-11.18-38.51-1.32-.34-2.75-.07-4.35.79-1.52 1.87-3.15 3.93-4.89 6.16v60.02c.17.05.33.1.5.15 8.94 2.73 16.49 5.02 22.52 5.22z" fill="url(#a2)"/><path d="m23.02 194.23c.38-6.32-.12-16.65-2.6-33.83-3.56-24.66-5.46-37.03-11.18-38.51-1.32-.34-2.75-.07-4.35.79-1.52 1.87-3.15 3.93-4.89 6.16v60.02c.17.05.33.1.5.15 8.94 2.73 16.49 5.02 22.52 5.22z" fill="url(#a3)" opacity=".18"/><path d="m316.51 540.09c6.17 8.32 12.07 16.26 15.19 22.66 8.92.18 12.4 1.03 14.32-1.75 4.18-6.04-5.75-19.42-16.51-33.91-10.16-13.69-15.64-20.86-22.22-20.03-5.68.71-9.51 7.03-12.08 12.95 6.19-.07 11.61 7.04 21.3 20.08z" fill="url(#a4)"/><path d="m316.51 540.09c6.17 8.32 12.07 16.26 15.19 22.66 8.92.18 12.4 1.03 14.32-1.75 4.18-6.04-5.75-19.42-16.51-33.91-10.16-13.69-15.64-20.86-22.22-20.03-5.68.71-9.51 7.03-12.08 12.95 6.19-.07 11.61 7.04 21.3 20.08z" fill="url(#a5)" opacity=".18"/><path d="m294.51 564.22c4.12 2.8 7.04.21 22.88-1.04 5.91-.46 10.58-.5 14.31-.43-3.12-6.41-9.01-14.35-15.19-22.66-9.69-13.04-15.11-20.15-21.3-20.08-1.08 2.48-1.93 4.9-2.6 6.8-3.84 10.87-7.28 31.18 1.9 37.41z" fill="url(#a6)"/><path d="m294.51 564.22c4.12 2.8 7.04.21 22.88-1.04 5.91-.46 10.58-.5 14.31-.43-3.12-6.41-9.01-14.35-15.19-22.66-9.69-13.04-15.11-20.15-21.3-20.08-1.08 2.48-1.93 4.9-2.6 6.8-3.84 10.87-7.28 31.18 1.9 37.41z" fill="url(#a7)" opacity=".18"/><path d="m111.81 39.71c19.36 16.81 29.31 25.45 27.78 35.13-.08.53-.2 1.04-.34 1.55 7.15-3.72 12.38-8.45 13.34-14.55 1.53-9.68-8.42-18.32-27.78-35.13-20.9-18.14-31.69-27.51-43.38-24.9-4.78 1.06-9.02 5.4-13.91 13.25.3-.1.61-.18.91-.25 11.69-2.6 22.48 6.77 43.38 24.91z" fill="url(#a8)"/><path d="m111.81 39.71c19.36 16.81 29.31 25.45 27.78 35.13-.08.53-.2 1.04-.34 1.55 7.15-3.72 12.38-8.45 13.34-14.55 1.53-9.68-8.42-18.32-27.78-35.13-20.9-18.14-31.69-27.51-43.38-24.9-4.78 1.06-9.02 5.4-13.91 13.25.3-.1.61-.18.91-.25 11.69-2.6 22.48 6.77 43.38 24.91z" fill="url(#a9)" opacity=".18"/><path d="m38.58 84.41c7.71 13.88 42.96 7.09 59.04 4 11.7-2.25 29.45-5.67 41.63-12.02.15-.51.26-1.02.34-1.55 1.53-9.68-8.42-18.32-27.78-35.13-20.9-18.14-31.68-27.51-43.38-24.91-.31.07-.61.15-.91.25-4.62 7.4-9.82 17.93-16.64 31.82-15.1 30.8-13.51 35.38-12.31 37.54z" fill="url(#ba)"/><path d="m38.58 84.41c7.71 13.88 42.96 7.09 59.04 4 11.7-2.25 29.45-5.67 41.63-12.02.15-.51.26-1.02.34-1.55 1.53-9.68-8.42-18.32-27.78-35.13-20.9-18.14-31.68-27.51-43.38-24.91-.31.07-.61.15-.91.25-4.62 7.4-9.82 17.93-16.64 31.82-15.1 30.8-13.51 35.38-12.31 37.54z" fill="url(#bb)" opacity=".18"/></svg>