<svg width="1534" height="1534" viewBox="0 0 1534 1534" fill="none" xmlns="http://www.w3.org/2000/svg">
<rect width="1534" height="1534" fill="white"/>
<path d="M1217 714H798.36L432 1080.57L641.255 1290L1217 714Z" fill="#39CEFD"/>
<path d="M327.371 977L118 767.573L798.39 87H1217L327.371 977Z" fill="#39CEFD"/>
<path d="M641 1290.18L798.174 1447H1217L850.478 1081L641 1290.18Z" fill="#03569B"/>
<path d="M641 1290L951 1182.62L850.021 1081L641 1290Z" fill="url(#paint0_linear)"/>
<path d="M641.146 871.605L431.873 1080.88L641.145 1290.15L850.418 1080.88L641.146 871.605Z" fill="#16B9FD"/>
<path d="M1217 714.561L850.667 1080.78L1217 1447H798.39L641.296 1290.01L431.925 1080.78L798.39 714.561H1217V714.561ZM798.39 87L118 766.935L327.371 976.165L1217 87H798.39V87Z" fill="url(#paint1_radial)"/>
<g filter="url(#filter0_d)">
<rect x="641" y="176" width="801" height="801" rx="47" fill="#F4F4F4"/>
</g>
<path fill-rule="evenodd" clip-rule="evenodd" d="M821.35 628C835.35 628 846.7 639.305 846.7 653.25V754.25C846.7 760.947 849.371 767.369 854.125 772.104C858.879 776.84 865.327 779.5 872.05 779.5H1226.95C1233.67 779.5 1240.12 776.84 1244.88 772.104C1249.63 767.369 1252.3 760.947 1252.3 754.25V653.25C1252.3 639.305 1263.65 628 1277.65 628C1291.65 628 1303 639.305 1303 653.25V754.25C1303 774.34 1294.99 793.607 1280.73 807.813C1266.46 822.019 1247.12 830 1226.95 830H872.05C851.88 830 832.537 822.019 818.275 807.813C804.012 793.607 796 774.34 796 754.25V653.25C796 639.305 807.35 628 821.35 628Z" fill="#1FBCFD"/>
<path fill-rule="evenodd" clip-rule="evenodd" d="M902.542 509.364C912.598 499.545 928.902 499.545 938.958 509.364L1049.5 617.3L1160.04 509.364C1170.1 499.545 1186.4 499.545 1196.46 509.364C1206.51 519.183 1206.51 535.103 1196.46 544.922L1067.71 670.636C1057.65 680.455 1041.35 680.455 1031.29 670.636L902.542 544.922C892.486 535.103 892.486 519.183 902.542 509.364Z" fill="#1FBCFD"/>
<path fill-rule="evenodd" clip-rule="evenodd" d="M1049.5 323C1063.03 323 1074 334.353 1074 348.357V652.643C1074 666.647 1063.03 678 1049.5 678C1035.97 678 1025 666.647 1025 652.643V348.357C1025 334.353 1035.97 323 1049.5 323Z" fill="#1FBCFD"/>
<defs>
<filter id="filter0_d" x="637" y="176" width="809" height="809" filterUnits="userSpaceOnUse" color-interpolation-filters="sRGB">
<feFlood flood-opacity="0" result="BackgroundImageFix"/>
<feColorMatrix in="SourceAlpha" type="matrix" values="0 0 0 0 0 0 0 0 0 0 0 0 0 0 0 0 0 0 127 0"/>
<feOffset dy="4"/>
<feGaussianBlur stdDeviation="2"/>
<feColorMatrix type="matrix" values="0 0 0 0 0 0 0 0 0 0 0 0 0 0 0 0 0 0 0.25 0"/>
<feBlend mode="normal" in2="BackgroundImageFix" result="effect1_dropShadow"/>
<feBlend mode="normal" in="SourceGraphic" in2="effect1_dropShadow" result="shape"/>
</filter>
<linearGradient id="paint0_linear" x1="701.984" y1="1330.32" x2="857.642" y2="1174.65" gradientUnits="userSpaceOnUse">
<stop stop-color="#1A237E" stop-opacity="0.4"/>
<stop offset="1" stop-color="#1A237E" stop-opacity="0"/>
</linearGradient>
<radialGradient id="paint1_radial" cx="0" cy="0" r="1" gradientUnits="userSpaceOnUse" gradientTransform="translate(148.874 179.695) scale(1664.91 1663.79)">
<stop stop-color="white" stop-opacity="0.1"/>
<stop offset="1" stop-color="white" stop-opacity="0"/>
</radialGradient>
</defs>
</svg>
