<svg xmlns="http://www.w3.org/2000/svg" width="34.993" height="34.993" viewBox="0 0 34.993 34.993">
  <g id="Group_181" data-name="Group 181" transform="translate(1434 1245.993)">
    <g id="Subtraction_1" data-name="Subtraction 1" transform="translate(-1434 -1252)" fill="red">
      <path d="M 17.49960708618164 40.50040054321289 C 12.95908641815186 40.50040054321289 8.690176010131836 38.73202133178711 5.479276180267334 35.52102279663086 C 2.268336296081543 32.30995178222656 0.4999962151050568 28.040771484375 0.4999962151050568 23.49990081787109 C 0.4999962151050568 19.0434513092041 2.212016105651855 14.83144092559814 5.320686340332031 11.63978099822998 C 8.303303718566895 8.57753849029541 12.25621223449707 6.774600505828857 16.50009536743164 6.529230117797852 L 16.50009536743164 24.00030136108398 L 16.50009536743164 24.50030136108398 L 17.00009536743164 24.50030136108398 L 34.47109222412109 24.50030136108398 C 34.22529602050781 28.74420547485352 32.42203140258789 32.69708251953125 29.35959625244141 35.67971038818359 C 26.16774559020996 38.78837966918945 21.95578575134277 40.50040054321289 17.49960708618164 40.50040054321289 Z" stroke="none"/>
      <path d="M 17.49960708618164 40.00040054321289 C 21.82471656799316 40.00040054321289 25.91278648376465 38.33874130249023 29.01074600219727 35.3215217590332 C 31.85536003112793 32.55102157592773 33.5806770324707 28.91779327392578 33.93284225463867 25.00030136108398 L 17.00009536743164 25.00030136108398 L 16.00009536743164 25.00030136108398 L 16.00009536743164 24.00030136108398 L 16.00009536743164 7.067426681518555 C 12.08263206481934 7.419206142425537 8.449339866638184 9.144209861755371 5.678866386413574 11.98864078521729 C 2.661646127700806 15.08641052246094 0.9999961853027344 19.17452049255371 0.9999961853027344 23.49990081787109 C 0.9999961853027344 27.90721130371094 2.716336250305176 32.05084228515625 5.832836151123047 35.16747283935547 C 8.949295997619629 38.28403091430664 13.09263610839844 40.00040054321289 17.49960708618164 40.00040054321289 M 17.49960708618164 41.00040054321289 C 12.82551574707031 41.00040054321289 8.431056022644043 39.18001174926758 5.125716209411621 35.87457275390625 C 1.820346236228943 32.56906127929688 -3.79943844563968e-06 28.17432022094727 -3.79943844563968e-06 23.49990081787109 C -3.79943844563968e-06 18.91238021850586 1.762386202812195 14.57647132873535 4.962506294250488 11.2909107208252 C 8.156426429748535 8.011731147766113 12.43145656585693 6.135341167449951 17.00009536743164 6.007380962371826 L 17.00009536743164 24.00030136108398 L 34.99299621582031 24.00030136108398 C 34.86455535888672 28.56968116760254 32.98744583129883 32.84435272216797 29.70845603942871 36.03790283203125 C 26.42270660400391 39.23802185058594 22.08685684204102 41.00040054321289 17.49960708618164 41.00040054321289 Z" stroke="none"/>
    </g>
  </g>
</svg>
